<?xml version="1.0" encoding="utf-8"?><svg xmlns="http://www.w3.org/2000/svg" xmlns:xlink="http://www.w3.org/1999/xlink"><symbol viewBox="0 0 407.437 407.437" id="arrow-bottom"><path d="M386.258 91.567l-182.54 181.945L21.179 91.567 0 112.815 203.718 315.87l203.719-203.055z"/></symbol><symbol viewBox="0 0 45.3 17" id="back"><path d="M8.5 17L0 8.5 8.5 0l1.4 1.4-7.1 7.1 7.1 7.1z"/><path d="M1.4 7.5h43.8v2H1.4z"/></symbol><symbol viewBox="0 0 64.2 54.7" id="bank"><path d="M41.1 54.7H5.5c-3.1 0-5.5-2.5-5.5-5.5V27.4c0-3.1 2.5-5.5 5.5-5.5H41c3.1 0 5.5 2.5 5.5 5.5v21.8c.1 3-2.4 5.5-5.4 5.5zM5.5 24c-1.8 0-3.3 1.5-3.3 3.3v21.8c0 1.8 1.5 3.3 3.3 3.3H41c1.8 0 3.3-1.5 3.3-3.3V27.4c0-1.8-1.5-3.3-3.3-3.3H5.5z"/><path d="M1.1 29.7h44.4v2.2H1.1zm40.7 6.6h-4.3v4.2h4.3v-4.2z"/><path d="M58.7 32.9H50c-.6 0-1.1-.5-1.1-1.1s.5-1.1 1.1-1.1h8.7c1.8 0 3.3-1.5 3.3-3.3V5.5c0-1.8-1.5-3.3-3.3-3.3H22.9c-1.8 0-3.3 1.5-3.3 3.3v13.6c0 .6-.5 1.1-1.1 1.1s-1.1-.5-1.1-1.1V5.5c0-3.1 2.5-5.5 5.5-5.5h35.7c3.1 0 5.5 2.5 5.5 5.5v21.8c.1 3.1-2.4 5.6-5.4 5.6z"/><path d="M45.5 19.3H22.1c-.6 0-1.1-.5-1.1-1.1s.5-1.1 1.1-1.1h23.4c.6 0 1.1.5 1.1 1.1s-.5 1.1-1.1 1.1z"/></symbol><symbol viewBox="-13 1 64 64" id="bus"><path d="M32.4 12.2H6.9c-1.7 0-3-1.3-3-3V8.1c0-1.7 1.3-3 3-3h25.4c1.7 0 3 1.3 3 3v1.1c.1 1.7-1.3 3-2.9 3zM6.9 7.1c-.6 0-1 .4-1 1v1.1c0 .6.4 1 1 1h25.4c.6 0 1-.4 1-1V8.1c0-.6-.4-1-1-1H6.9z"/><path d="M39.9 59.6H-1.9c-3.9 0-7-3.1-7-7V8.3c0-3.9 3.1-7 7-7h41.8c3.9 0 7 3.1 7 7v44.3c0 3.9-3.2 7-7 7zM-1.9 3.3c-2.8 0-5 2.2-5 5v44.3c0 2.8 2.2 5 5 5h41.8c2.8 0 5-2.2 5-5V8.3c0-2.8-2.2-5-5-5H-1.9z"/><path d="M37.8 39.1H.2c-2.2 0-4-1.8-4-4v-17c0-2.2 1.8-4 4-4h37.5c2.2 0 4 1.8 4 4v17c.1 2.2-1.7 4-3.9 4zM.2 16.1c-1.1 0-2 .9-2 2v17c0 1.1.9 2 2 2h37.5c1.1 0 2-.9 2-2v-17c0-1.1-.9-2-2-2H.2zm-7.1 15.3h-2.8c-1.7 0-3-1.3-3-3v-8.8c0-1.7 1.3-3 3-3h2.8v14.8zm-2.8-12.8c-.6 0-1 .4-1 1v8.8c0 .6.4 1 1 1h.8V18.6h-.8zm57.4 12.8h-2.8V16.6h2.8c1.7 0 3 1.3 3 3v8.8c0 1.7-1.3 3-3 3zm-.8-2h.8c.6 0 1-.4 1-1v-8.8c0-.6-.4-1-1-1h-.8v10.8zM2.1 54.5c-3.2 0-5.8-2.6-5.8-5.8s2.6-5.8 5.8-5.8c3.2 0 5.8 2.6 5.8 5.8s-2.6 5.8-5.8 5.8zm0-9.7c-2.1 0-3.8 1.7-3.8 3.8s1.7 3.8 3.8 3.8c2.1 0 3.8-1.7 3.8-3.8s-1.7-3.8-3.8-3.8zm33.8 9.7c-3.2 0-5.8-2.6-5.8-5.8s2.6-5.8 5.8-5.8 5.8 2.6 5.8 5.8-2.6 5.8-5.8 5.8zm0-9.7c-2.1 0-3.8 1.7-3.8 3.8s1.7 3.8 3.8 3.8c2.1 0 3.8-1.7 3.8-3.8s-1.7-3.8-3.8-3.8zM1.6 64.7h-6.2c-1.7 0-3-1.3-3-3v-5.3h2v5.3c0 .6.4 1 1 1h6.2c.6 0 1-.4 1-1v-3.1h2v3.1c0 1.7-1.3 3-3 3zm41 0h-6.2c-1.7 0-3-1.3-3-3v-3.1h2v3.1c0 .6.4 1 1 1h6.2c.6 0 1-.4 1-1v-5.3h2v5.3c0 1.7-1.4 3-3 3z"/></symbol><symbol viewBox="0 0 348.077 348.077" id="call"><path d="M340.273 275.083l-53.755-53.761c-10.707-10.664-28.438-10.34-39.518.744l-27.082 27.076a792.327 792.327 0 0 1-5.344-2.973c-17.102-9.476-40.509-22.464-65.14-47.113-24.704-24.701-37.704-48.144-47.209-65.257-1.003-1.813-1.964-3.561-2.913-5.221l18.176-18.149 8.936-8.947c11.097-11.1 11.403-28.826.721-39.521L73.39 8.194c-10.682-10.68-28.421-10.356-39.518.744l-15.15 15.237.414.411c-5.08 6.482-9.325 13.958-12.484 22.02C3.74 54.28 1.927 61.603 1.098 68.941-6 127.785 20.89 181.564 93.866 254.541c100.875 100.868 182.167 93.248 185.674 92.876 7.638-.913 14.958-2.738 22.397-5.627 7.992-3.122 15.463-7.361 21.941-12.43l.331.294 15.348-15.029c11.074-11.098 11.393-28.83.716-39.542z"/></symbol><symbol viewBox="447.3 -6.5 65.5 73.1" id="cofe"><path d="M492.9 56.7h-31.5c-.3 0-.5-.1-.7-.3-.1-.1-.1-.2-.2-.3-4.3-7.6-7.1-15.9-8.2-24.6l-1.1-8.6c0-.3.1-.6.2-.8s.5-.3.8-.3h50c.3 0 .6.1.8.3.2.2.3.5.2.8l-1.1 8.6c-1.1 8.7-3.9 17-8.2 24.6-.2.3-.6.6-1 .6zm-30.9-2h30.4c4.1-7.3 6.6-15.2 7.7-23.5l1-7.5h-47.8l1 7.5c1 8.3 3.6 16.1 7.7 23.5z"/><path d="M501.2 29h-48.1c-.6 0-1-.4-1-1s.4-1 1-1h48.1c.6 0 1 .4 1 1s-.4 1-1 1zm-3.3 34h-41.4c-3.4 0-6.1-3.1-6.1-6.9v-.5c0-.6.4-1 1-1h51.5c.6 0 1 .4 1 1v.5c0 3.8-2.7 6.9-6 6.9zm-45.5-6.3c.2 2.4 2 4.3 4.1 4.3h41.4c2.1 0 3.8-1.9 4.1-4.3h-49.6zM475 20.8c-.5 0-.9-.4-1-.9-.1-.5.3-1 .9-1.1.5-.1.9-.3 1.2-.7.4-.5.5-1.2.4-1.9-.2-1.4-1.4-2.5-2.6-3.5l-.4-.3c-1.1-.9-2.6-2.1-2.4-4 .1-1.8 1.5-3.4 3.3-3.6.5-.1 1.1.3 1.1.9.1.5-.3 1.1-.9 1.1-.8.1-1.5.9-1.5 1.7-.1.9.6 1.5 1.7 2.3l.4.3c1.5 1.2 3 2.7 3.3 4.8.2 1.2-.1 2.5-.8 3.4-.6.8-1.5 1.3-2.5 1.4-.1.1-.2.1-.2.1zm4.8-7.8c-.5 0-.9-.4-1-.9-.1-.5.3-1 .9-1.1.5-.1.9-.3 1.2-.7.4-.5.5-1.2.4-1.9-.2-1.4-1.4-2.5-2.6-3.5l-.4-.3c-1.1-.9-2.6-2.1-2.4-4 .1-1.8 1.5-3.4 3.3-3.6.5-.1 1.1.3 1.1.9.1.5-.3 1.1-.9 1.1-.8.1-1.5.9-1.5 1.7-.1.9.6 1.5 1.7 2.3l.4.3c1.5 1.2 3 2.7 3.3 4.8.2 1.2-.1 2.5-.8 3.4-.6.8-1.5 1.3-2.5 1.4-.1.1-.2.1-.2.1z"/><path d="M497.7 46.9c-.3 0-.7-.2-.8-.5-.3-.5-.2-1.1.3-1.4.1-.1 8.9-5.7 10.1-10.5.5-2.1.5-3.6-.2-4.7-.8-1.3-2.6-2.2-5.5-2.8-.5-.1-.9-.6-.8-1.2s.6-.9 1.2-.8c3.5.7 5.7 1.9 6.8 3.7 1 1.6 1.1 3.6.5 6.3-1.4 5.5-10.6 11.4-11 11.6-.2.3-.4.3-.6.3z"/></symbol><symbol viewBox="0 0 297 297" id="del"><path d="M229.99 48.228H67.01c-8.5 0-15.415 6.915-15.415 15.415v12.31h193.81v-12.31c0-8.5-6.915-15.415-15.415-15.415zM70.324 263.781C71.875 282.408 87.734 297 106.426 297h84.147c18.692 0 34.551-14.592 36.103-33.219l14.518-174.21H55.806l14.518 174.21zm50.414-237.679c0-6.883 5.6-12.483 12.483-12.483h30.556c6.884 0 12.484 5.6 12.484 12.483v8.507h13.619v-8.507C189.881 11.71 178.171 0 163.777 0h-30.556c-14.392 0-26.102 11.71-26.102 26.102v8.507h13.619v-8.507z"/></symbol><symbol viewBox="0 0 528.899 528.899" id="edit"><path d="M328.883 89.125l107.59 107.589-272.34 272.34L56.604 361.465l272.279-272.34zm189.23-25.948l-47.981-47.981c-18.543-18.543-48.653-18.543-67.259 0l-45.961 45.961 107.59 107.59 53.611-53.611c14.382-14.383 14.382-37.577 0-51.959zM.3 512.69c-1.958 8.812 5.998 16.708 14.811 14.565l119.891-29.069L27.473 390.597.3 512.69z"/></symbol><symbol viewBox="0 0 37.195 37.195" id="email"><path d="M19.332 22.844c-.5.416-1.114.441-1.612 0C11.84 17.616 5.957 12.391.074 7.162c-.03.046-.046.109-.074.157v23.677h37.195V7.998c-5.956 4.948-11.909 9.898-17.863 14.846z"/><path d="M16.729 18.922c.607.541 1.217 1.082 1.823 1.623C24.264 15.8 29.971 11.056 35.68 6.311c-.076-.04-.158-.072-.233-.111H2.412c2.83 2.517 5.662 5.032 8.492 7.548a7384.73 7384.73 0 0 1 5.825 5.174z"/></symbol><symbol viewBox="0 0 125 125" id="eqt1"><circle cx="52.8" cy="73.5" r="50.5" fill="#ffeb7b"/><path d="M52.7 125c-13.2 0-26.3-5-36.3-15-.6-.6-.6-1.6 0-2.2.6-.6 1.6-.6 2.2 0 18.9 18.9 49.5 18.9 68.4 0 9-9.1 14-21.3 14-34.2s-5-25.1-14.2-34.2c-.6-.6-.6-1.6 0-2.2.6-.6 1.6-.6 2.2 0 9.7 9.7 15.1 22.6 15.1 36.3 0 13.7-5.3 26.6-15.1 36.3C79 120 65.9 125 52.7 125z"/><path d="M73.5 98.5H6.4c-3.6 0-6.5-2.9-6.5-6.5V18c0-1.1.1-4.4 24-9.2.4-.1.8-.5.8-.9V5.6c0-1.9 1.6-3.5 3.5-3.5h22.6c1.9 0 3.5 1.6 3.5 3.5v2.3c0 .4.4.8.7.9h.2l21.9 7h.1c1.6.6 2.8 2.4 2.8 4.1v72c0 3.7-2.9 6.6-6.5 6.6zM2.9 18.3V92c0 1.9 1.6 3.5 3.5 3.5h67.2c1.9 0 3.5-1.6 3.5-3.5V20c0-.5-.4-1.1-.9-1.3l-21.8-7c-1.7-.4-3.1-2.1-3.1-3.8V5.6c0-.3-.2-.5-.5-.5H28.1c-.3 0-.5.2-.5.5v2.3c0 1.8-1.4 3.5-3.2 3.9-9.3 1.9-20 4.8-21.5 6.5zM78.5 105H1.4c-.8 0-1.5-.7-1.5-1.5s.7-1.5 1.5-1.5h77.2c.8 0 1.5.7 1.5 1.5s-.7 1.5-1.6 1.5z"/><path d="M46.8 18.1H32.6c-.8 0-1.5-.7-1.5-1.5s.7-1.5 1.5-1.5h14.2c.8 0 1.5.7 1.5 1.5s-.7 1.5-1.5 1.5zm24.1 80.4H9.8v-68c0-3.6 2.9-6.5 6.5-6.5h48.1c3.6 0 6.5 2.9 6.5 6.5v68zm-58.1-3h55.1v-65c0-1.9-1.6-3.5-3.5-3.5H16.3c-1.9 0-3.5 1.6-3.5 3.5v65z"/><path d="M40.3 98.5c-.8 0-1.5-.7-1.5-1.5V25.5c0-.8.7-1.5 1.5-1.5s1.5.7 1.5 1.5V97c0 .8-.7 1.5-1.5 1.5zm-9-38.1c-.4 0-.8-.1-1.1-.4l-14-14c-.6-.6-.6-1.5 0-2.1s1.5-.6 2.1 0l14 14c.6.6.6 1.5 0 2.1-.2.3-.6.4-1 .4zm30 16c-.4 0-.8-.1-1.1-.4l-14-14c-.6-.6-.6-1.5 0-2.1s1.5-.6 2.1 0l14 14c.6.6.6 1.5 0 2.1-.2.3-.6.4-1 .4zm-1-16c-.4 0-.8-.1-1.1-.4l-14-14c-.6-.6-.6-1.5 0-2.1s1.5-.6 2.1 0l14 14c.6.6.6 1.5 0 2.1-.2.3-.6.4-1 .4zm-29 15c-.4 0-.8-.1-1.1-.4l-14-14c-.6-.6-.6-1.5 0-2.1s1.5-.6 2.1 0l14 14c.6.6.6 1.5 0 2.1-.2.3-.6.4-1 .4z"/></symbol><symbol viewBox="0 0 125 125" id="eqt2"><circle cx="67.8" cy="73.5" r="50.5" fill="#ffeb7b"/><path d="M67.7 125c-13.2 0-26.3-5-36.3-15-.6-.6-.6-1.6 0-2.2.6-.6 1.6-.6 2.2 0 18.9 18.9 49.5 18.9 68.4 0 9-9.1 14-21.3 14-34.2s-5-25.1-14.2-34.2c-.6-.6-.6-1.6 0-2.2.6-.6 1.6-.6 2.2 0 9.7 9.7 15.1 22.6 15.1 36.3 0 13.7-5.3 26.6-15.1 36.3C94 120 80.8 125 67.7 125z"/><path d="M36.8 104.5H7.1c-3.9 0-7.1-3.2-7.1-7.1V9.9C0 6 3.2 2.8 7.1 2.8h29.7c3.9 0 7.1 3.2 7.1 7.1v87.5c0 3.9-3.2 7.1-7.1 7.1zM7.1 5.8C4.9 5.8 3 7.7 3 9.9v87.5c0 2.3 1.8 4.1 4.1 4.1h29.7c2.3 0 4.1-1.8 4.1-4.1V9.9c0-2.3-1.8-4.1-4.1-4.1H7.1z"/><path d="M11.5 97.8c-.8 0-1.5-.7-1.5-1.5V11.5c0-.8.7-1.5 1.5-1.5s1.5.7 1.5 1.5v84.8c0 .9-.6 1.5-1.5 1.5zm10 0c-.8 0-1.5-.7-1.5-1.5V11.5c0-.8.7-1.5 1.5-1.5s1.5.7 1.5 1.5v84.8c0 .9-.6 1.5-1.5 1.5zm10 0c-.8 0-1.5-.7-1.5-1.5V11.5c0-.8.7-1.5 1.5-1.5s1.5.7 1.5 1.5v84.8c0 .9-.6 1.5-1.5 1.5zm44.4-64.1c-.8 0-1.5-.7-1.5-1.5v-1.3c0-7 0-16.7-3.3-20-.8-.8-1.7-1.2-2.9-1.2-3.4 0-6.8 5.2-9.8 9.9-3.1 4.8-5.8 8.9-9.2 8.9-4.9 0-8.4-3.7-8.4-7.1 0-.8.7-1.5 1.5-1.5s1.5.7 1.5 1.5c0 1.4 1.9 4.1 5.4 4.1 1.8 0 4.5-4.2 6.6-7.5 3.6-5.5 7.3-11.2 12.3-11.2 2 0 3.7.7 5 2 4.2 4.2 4.2 13.7 4.1 22.1v1.3c.2.8-.5 1.5-1.3 1.5z"/><path d="M78.8 48.3c-.8 0-1.5-.7-1.5-1.5V35.7c0-1.1-.9-2-2-2s-2 .9-2 2v11.1c0 .8-.7 1.5-1.5 1.5s-1.5-.7-1.5-1.5V35.7c0-2.8 2.2-5 5-5s5 2.2 5 5v11.1c0 .8-.6 1.5-1.5 1.5z"/><path d="M87.9 83.2c-.4 0-.9-.2-1.2-.6-.5-.6-.4-1.6.3-2.1 4.4-3.5 7-8.7 7-14.3 0-10-8.1-18.1-18.1-18.1s-18.1 8.1-18.1 18.1c0 5.5 2.5 10.7 6.8 14.1.6.5.7 1.5.2 2.1-.5.6-1.5.7-2.1.2-5-4-7.9-10-7.9-16.5 0-11.6 9.5-21.1 21.1-21.1S97 54.6 97 66.3c0 6.5-3 12.6-8.1 16.6-.3.2-.7.3-1 .3z"/><path d="M92.8 102.3H59.5c-3 0-5.5-2.5-5.5-5.5V86.1c0-3 2.5-5.5 5.5-5.5H64c.8 0 1.5.7 1.5 1.5s-.7 1.5-1.5 1.5h-4.5c-1.4 0-2.5 1.1-2.5 2.5v10.6c0 1.4 1.1 2.5 2.5 2.5h33.4c1.4 0 2.5-1.1 2.5-2.5V86.1c0-1.4-1.1-2.5-2.5-2.5H88c-.8 0-1.5-.7-1.5-1.5s.7-1.5 1.5-1.5h4.8c3 0 5.5 2.5 5.5 5.5v10.6c0 3.1-2.4 5.6-5.5 5.6z"/><path d="M67.9 107.4h-4.1c-1.7 0-3.2-1.4-3.2-3.2v-3.5c0-.8.7-1.5 1.5-1.5s1.5.7 1.5 1.5v3.5c0 .1.1.2.2.2h4.1c.1 0 .2-.1.2-.2v-3.5c0-.8.7-1.5 1.5-1.5s1.5.7 1.5 1.5v3.5c0 1.8-1.4 3.2-3.2 3.2zm21.1 0h-4c-1.7 0-3.2-1.4-3.2-3.2v-3.5c0-.8.7-1.5 1.5-1.5s1.5.7 1.5 1.5v3.5c0 .1.1.2.2.2h4c.1 0 .2-.1.2-.2v-3.5c0-.8.7-1.5 1.5-1.5s1.5.7 1.5 1.5v3.5c0 1.8-1.4 3.2-3.2 3.2zM75.5 80c-7.6 0-13.7-6.1-13.7-13.7s6.1-13.7 13.7-13.7 13.7 6.1 13.7 13.7S83.1 80 75.5 80zm0-24.4c-5.9 0-10.7 4.8-10.7 10.7 0 5.9 4.8 10.7 10.7 10.7 5.9 0 10.7-4.8 10.7-10.7 0-5.9-4.8-10.7-10.7-10.7z"/><path d="M86.4 73.1H64.5c-.8 0-1.5-.7-1.5-1.5s.7-1.5 1.5-1.5h21.9c.8 0 1.5.7 1.5 1.5s-.7 1.5-1.5 1.5z"/><path d="M74.9 73.1c-.2 0-.4 0-.6-.1-.8-.3-1.1-1.2-.8-2l4.7-11.2c.3-.8 1.2-1.1 2-.8.8.3 1.1 1.2.8 2l-4.7 11.1c-.2.6-.8 1-1.4 1z"/></symbol><symbol viewBox="0 0 125 125" id="eqt3"><circle cx="60.8" cy="73.5" r="50.5" fill="#ffeb7b"/><path d="M60.7 125c-13.2 0-26.3-5-36.3-15-.6-.6-.6-1.6 0-2.2.6-.6 1.6-.6 2.2 0 18.9 18.9 49.5 18.9 68.4 0 9-9.1 14-21.3 14-34.2s-5-25.1-14.2-34.2c-.6-.6-.6-1.6 0-2.2.6-.6 1.6-.6 2.2 0 9.7 9.7 15.1 22.6 15.1 36.3 0 13.7-5.3 26.6-15.1 36.3C87 120 73.8 125 60.7 125z"/><path d="M43.4 107.8c-6.9 0-18.1-8.5-26.3-16.5S0 72.2 0 65.1V19.6C0 15.9 2.9 12 8.2 12h1.5c5.8.1 21.2.4 32.9-7.9.5-.3 1.1-.4 1.7 0 14.2 8.9 28.3 8.2 33.7 8h1.5c4.1 0 7.5 3.5 7.5 7.7v45.5c-.1 12.2-31 42.5-43.6 42.5zM8.2 15C4.4 15 3 17.8 3 19.6v45.5c0 10.8 29.5 39.7 40.4 39.7s40.4-28.9 40.4-39.7V19.6c0-2.5-2.1-4.7-4.5-4.7H78c-5 .2-19.8.9-34.6-7.9-12.4 8.3-28 8-33.9 7.9-.5.1-.9.1-1.3.1z"/><path d="M43.4 94.4c-9.5 0-32.9-23-32.9-32.3V34.5c0-.6.5-1.1 1.1-1.1s1.1.5 1.1 1.1V62c0 8.1 22.3 30 30.6 30s30.6-21.9 30.6-30V27.6c0-1.9-1.6-3.5-3.4-3.5h-1c-3.8.2-15 .7-26.2-6-4.9 3.3-11.1 5.2-18.4 5.8-.6 0-1.2-.4-1.2-1-.1-.6.4-1.2 1-1.2 7.2-.6 13.3-2.5 17.9-5.8.4-.3.9-.3 1.3 0 10.7 6.7 21.5 6.2 25.5 6.1h1.1c3.1 0 5.7 2.7 5.7 5.8V62c.1 9.4-23.2 32.4-32.8 32.4z"/><path d="M50.8 75.1h-15c-4.2 0-7.6-3.4-7.6-7.6V57.2c0-4.2 3.4-7.6 7.6-7.6h15c4.2 0 7.6 3.4 7.6 7.6v10.4c0 4.1-3.4 7.5-7.6 7.5zm-15-23.3c-2.9 0-5.3 2.4-5.3 5.3v10.4c0 2.9 2.4 5.3 5.3 5.3h15c2.9 0 5.3-2.4 5.3-5.3V57.2c0-2.9-2.4-5.3-5.3-5.3h-15z"/><path d="M53.3 51.8c-.6 0-1.1-.5-1.1-1.1V38.5c0-4.9-4-8.8-8.8-8.8s-8.8 4-8.8 8.8c0 .6-.5 1.1-1.1 1.1s-1.1-.5-1.1-1.1c0-6.1 5-11.1 11.1-11.1s11.1 5 11.1 11.1v12.2c-.2.6-.7 1.1-1.3 1.1zM43.9 64c-2.7 0-4.8-2.2-4.8-4.8s2.2-4.8 4.8-4.8 4.8 2.2 4.8 4.8-2.2 4.8-4.8 4.8zm0-7.4c-1.4 0-2.6 1.2-2.6 2.6s1.2 2.6 2.6 2.6 2.6-1.2 2.6-2.6-1.2-2.6-2.6-2.6z"/><path d="M43.9 68.6c-.6 0-1.1-.5-1.1-1.1v-4.6c0-.6.5-1.1 1.1-1.1s1.1.5 1.1 1.1v4.6c0 .6-.5 1.1-1.1 1.1z"/></symbol><symbol viewBox="0 0 125 125" id="eqt4"><circle cx="70.4" cy="73.5" r="50.5" fill="#ffeb7b"/><path d="M70.3 125c-13.2 0-26.3-5-36.3-15-.6-.6-.6-1.6 0-2.2.6-.6 1.6-.6 2.2 0 18.9 18.9 49.5 18.9 68.4 0 9.1-9.1 14.2-21.3 14.2-34.2s-5-25.1-14.2-34.2c-.6-.6-.6-1.6 0-2.2.6-.6 1.6-.6 2.2 0 9.7 9.7 15.1 22.6 15.1 36.3 0 13.7-5.3 26.6-15.1 36.3C96.6 120 83.4 125 70.3 125zM6 99.5H5c-2.7 0-5-2.2-5-5v-22c0-2.7 2.2-5 5-5h2v3H5c-1.1 0-2 .9-2 2v22c0 1.1.9 2 2 2h1v3z"/><path d="M17 96.5h65.4v3H17zm77.8 3h-2.5v-3h2.5c1.1 0 2-.9 2-2v-22c0-1.1-.9-2-2-2h-2.5v-3h2.5c2.7 0 5 2.2 5 5v22c0 2.8-2.3 5-5 5zM16.9 67.6h65.7v3H16.9z"/><path d="M13.9 104.9h-4c-2.7 0-4.9-2.2-4.9-4.9V67.9C5 65.2 7.2 63 9.9 63h4c2.7 0 4.9 2.2 4.9 4.9v32.2c0 2.6-2.2 4.8-4.9 4.8zM9.9 66c-1 0-1.9.8-1.9 1.9v32.2c0 1 .8 1.9 1.9 1.9h4c1 0 1.9-.8 1.9-1.9V67.9c0-1-.8-1.9-1.9-1.9h-4zm79.5 38.9h-4c-2.7 0-4.9-2.2-4.9-4.9V67.9c0-2.7 2.2-4.9 4.9-4.9h4c2.7 0 4.9 2.2 4.9 4.9v32.2c0 2.6-2.2 4.8-4.9 4.8zm-4-38.9c-1 0-1.9.8-1.9 1.9v32.2c0 1 .8 1.9 1.9 1.9h4c1 0 1.9-.8 1.9-1.9V67.9c0-1-.8-1.9-1.9-1.9h-4zm-7.8 3.1h-3v-5.9c0-1-.8-1.9-1.9-1.9H25.5c-1 0-1.9.8-1.9 1.9v5.9h-3v-5.9c0-2.7 2.2-4.9 4.9-4.9h47.3c2.7 0 4.9 2.2 4.9 4.9v5.9z"/><path d="M72.3 59.8h-3v-2.7c0-.9-.7-1.6-1.6-1.6H31.3c-.9 0-1.6.7-1.6 1.6v2.7h-3v-2.7c0-2.5 2.1-4.6 4.6-4.6h36.4c2.5 0 4.6 2.1 4.6 4.6v2.7z"/><path d="M60.4 54h-3v-9.2c0-1.2-.9-2.1-2.1-2.1H43.9c-1.2 0-2.1.9-2.1 2.1V54h-3v-9.2c0-2.8 2.3-5.1 5.1-5.1h11.4c2.8 0 5.1 2.3 5.1 5.1V54z"/><path d="M51.6 25.1h3v16.1h-3zm3-11.9h-3V6.9c0-.4-.3-.8-.8-.8h-3.5c-.4 0-.8.3-.8.8V13h-3V6.9c0-2.1 1.7-3.8 3.8-3.8h3.5c2.1 0 3.8 1.7 3.8 3.8v6.3zm-11 11.9h3v16.1h-3z"/><path d="M58.9 34c-1.8 0-2.1-1.8-2.3-2.9-.4-2.3-1-5.2-7.5-5.2-7.2 0-7.8 3.8-8.1 5.8-.1.7-.3 2.3-1.8 2.3h-11c-5.2 0-9.5-4.3-9.5-9.5V14.3c0-5.2 4.3-9.5 9.5-9.5h10.9v3H28.2c-3.6 0-6.5 2.9-6.5 6.5v10.2c0 3.6 2.9 6.5 6.5 6.5h9.9c.4-2.3 1.6-8.1 11-8.1 8.9 0 9.9 5.2 10.4 7.6.1.3.1.8.2.9-.1-.2-.4-.5-.8-.5V34z"/><path d="M71.4 34H58.9v-3h12.5c3.6 0 6.5-2.9 6.5-6.5V14.3c0-3.6-2.9-6.5-6.5-6.5H58.9v-3h12.5c5.2 0 9.5 4.3 9.5 9.5v10.2c0 5.2-4.3 9.5-9.5 9.5z"/><path d="M49.6 15.1c-8.3 0-10.5-5.3-11.3-7.3-.1-.2-.2-.4-.2-.5.1.2.5.6 1.1.6v-3c1.2 0 1.6 1 1.9 1.8.8 1.9 2.2 5.5 8.5 5.5 6.2 0 7.1-3.5 7.6-5.3.2-.7.5-2 1.8-2v3c.7 0 1.1-.4 1.2-.8 0 .1-.1.3-.1.4-.5 1.9-2 7.6-10.5 7.6z"/></symbol><symbol viewBox="0 0 125 125" id="eqt5"><circle cx="50.8" cy="73.6" r="50.5" fill="#ffeb7b"/><path d="M54.3 6c9.4 0 17 7.6 17 17v45.6c0 9.4-7.6 17-17 17h-34c-9.4 0-17-7.6-17-17V23c0-9.4 7.6-17 17-17h34m0-3h-34c-11 0-20 9-20 20v45.6c0 11 9 20 20 20h34c11 0 20-9 20-20V23c0-11-9-20-20-20z"/><path d="M37.6 24c7 0 12.8 5.7 12.8 12.8s-5.7 12.8-12.8 12.8-12.8-5.7-12.8-12.8S30.6 24 37.6 24m0-3c-8.7 0-15.8 7.1-15.8 15.8s7.1 15.8 15.8 15.8 15.8-7.1 15.8-15.8S46.3 21 37.6 21z"/><path d="M36 38.3c-.4 0-.9-.2-1.1-.5-.5-.6-.5-1.6.2-2.1l7.3-6.1c.6-.5 1.6-.5 2.1.2.5.6.5 1.6-.2 2.1l-7.3 6c-.3.2-.7.4-1 .4zm-25.5-8.7H1.9c-.8 0-1.5-.7-1.5-1.5s.7-1.5 1.5-1.5h8.6c.8 0 1.5.7 1.5 1.5s-.7 1.5-1.5 1.5zm0 8H1.9c-.8 0-1.5-.7-1.5-1.5s.7-1.5 1.5-1.5h8.6c.8 0 1.5.7 1.5 1.5s-.7 1.5-1.5 1.5zm0 8H1.9c-.8 0-1.5-.7-1.5-1.5s.7-1.5 1.5-1.5h8.6c.8 0 1.5.7 1.5 1.5s-.7 1.5-1.5 1.5zm62-16h-8.6c-.8 0-1.5-.7-1.5-1.5s.7-1.5 1.5-1.5h8.6c.8 0 1.5.7 1.5 1.5s-.7 1.5-1.5 1.5zm0 8h-8.6c-.8 0-1.5-.7-1.5-1.5s.7-1.5 1.5-1.5h8.6c.8 0 1.5.7 1.5 1.5s-.7 1.5-1.5 1.5zm0 8h-8.6c-.8 0-1.5-.7-1.5-1.5s.7-1.5 1.5-1.5h8.6c.8 0 1.5.7 1.5 1.5s-.7 1.5-1.5 1.5zM51.8 77.4H24.3c-.8 0-1.5-.7-1.5-1.5s.7-1.5 1.5-1.5h27.5c.8 0 1.5.7 1.5 1.5s-.7 1.5-1.5 1.5zm10.3-7c-3.4 0-5.4-2.5-7.2-4.7-1.4-1.8-2.7-3.3-4.4-3.3-2 0-3.7 1.8-5.5 3.7-2 2.1-4.1 4.3-7 4.3-3.1 0-5.3-2.4-7.3-4.5-1.7-1.8-3.4-3.5-5.2-3.5-1.8 0-3.3 1.6-5 3.4-2.1 2.2-4.4 4.6-7.9 4.6-3.4 0-5.7-2.6-7.6-4.7-1.1-1.2-2.3-2.6-3.1-2.6-.8 0-1.5-.7-1.5-1.5s.7-1.5 1.5-1.5c2.1 0 3.7 1.7 5.4 3.6 1.6 1.8 3.4 3.7 5.4 3.7 2.2 0 3.9-1.8 5.7-3.7 2-2.1 4.1-4.3 7.2-4.3s5.3 2.4 7.3 4.5c1.7 1.8 3.4 3.5 5.2 3.5 1.6 0 3.2-1.6 4.8-3.4 2-2.2 4.4-4.6 7.7-4.6 3.2 0 5.1 2.4 6.8 4.5 1.5 1.9 2.9 3.5 4.8 3.5 2.2 0 4-2.3 5.5-4.3 1.5-1.9 2.9-3.7 4.8-3.7.8 0 1.5.7 1.5 1.5s-.7 1.5-1.5 1.5c-.5 0-1.7 1.6-2.5 2.6-1.9 2.4-4.2 5.4-7.9 5.4zm-35.7 33.9h-5.1c-1.9 0-3.5-1.6-3.5-3.5v-3.3c0-.1-.1-.3-.1-.4l-3.6-3.6c-.7-.7-1-1.5-1-2.5v-5h3v5c0 .1.1.3.1.4l3.6 3.6c.7.7 1 1.5 1 2.5v3.3c0 .3.2.5.5.5h5.1c.3 0 .5-.2.5-.5v-3.4c0-.9.4-1.8 1-2.5l3.5-3.5c.1-.1.1-.2.1-.4v-4h3v4c0 .9-.4 1.8-1 2.5L30.1 97c-.1.1-.1.2-.1.4v3.4c-.1 1.9-1.6 3.5-3.6 3.5zm26.6 0h-5.1c-1.9 0-3.5-1.6-3.5-3.5v-3.4c0-.1-.1-.3-.1-.4l-3.5-3.5c-.7-.7-1-1.5-1-2.5v-4h3v4c0 .1.1.3.1.4l3.5 3.5c.7.7 1 1.5 1 2.5v3.4c0 .3.2.5.5.5H53c.3 0 .5-.2.5-.5v-3.3c0-.9.4-1.8 1-2.5l3.6-3.6c.1-.1.1-.2.1-.4v-5h3v5c0 .9-.4 1.8-1 2.5l-3.6 3.6c-.1.1-.1.2-.1.4v3.3c0 1.9-1.6 3.5-3.5 3.5z"/><path d="M50.7 125.1c-13.2 0-26.3-5-36.3-15-.6-.6-.6-1.6 0-2.2.6-.6 1.6-.6 2.2 0 18.9 18.9 49.5 18.9 68.4 0 9-9.1 14-21.2 14-34.1s-5-25.1-14.2-34.2c-.6-.6-.6-1.6 0-2.2.6-.6 1.6-.6 2.2 0 9.7 9.7 15.1 22.6 15.1 36.3 0 13.7-5.3 26.6-15.1 36.3-10 10.1-23.1 15.1-36.3 15.1z"/></symbol><symbol viewBox="0 0 125 125" id="eqt6"><circle cx="60.2" cy="73.5" r="50.5" fill="#ffeb7b"/><path d="M60.1 125c-13.2 0-26.3-5-36.3-15-.6-.6-.6-1.6 0-2.2.6-.6 1.6-.6 2.2 0 18.9 18.9 49.5 18.9 68.4 0 9.1-9.1 14.2-21.3 14.2-34.2s-5-25.1-14.2-34.2c-.6-.6-.6-1.6 0-2.2.6-.6 1.6-.6 2.2 0 9.7 9.7 15.1 22.6 15.1 36.3 0 13.7-5.3 26.6-15.1 36.3C86.5 120 73.3 125 60.1 125z"/><path d="M80.1 6.2c1.1 0 2 .9 2 2V84c0 1.1-.9 2-2 2H11c-1.1 0-2-.9-2-2V8.2c0-1.1.9-2 2-2h69.1m0-3H11c-2.8 0-5 2.3-5 5V84c0 2.8 2.3 5 5 5h69.2c2.8 0 5-2.3 5-5V8.2c-.1-2.7-2.3-5-5.1-5z"/><path d="M80.1 89.1h-3V14.6c0-1.6-1.3-2.9-2.9-2.9H16.9c-1.6 0-2.9 1.3-2.9 2.9V89h-3V14.6c0-3.3 2.7-5.9 5.9-5.9h57.3c3.3 0 5.9 2.7 5.9 5.9v74.5z"/><path d="M44.2 10.2h2.6V89h-2.6z"/><path d="M12.5 48.3h67v2.6h-67zM19.7 28c-.4 0-.8-.1-1.1-.4-.6-.6-.6-1.5 0-2.1l9.6-9.6c.6-.6 1.5-.6 2.1 0 .6.6.6 1.5 0 2.1l-9.6 9.6c-.2.2-.6.4-1 .4zm.2 9.4c-.4 0-.8-.1-1.1-.4-.6-.6-.6-1.5 0-2.1l9.4-9.4c.6-.6 1.5-.6 2.1 0 .6.6.6 1.5 0 2.1L21 36.9c-.3.3-.7.5-1.1.5zm13.5-12.9c-.4 0-.8-.1-1.1-.4-.6-.6-.6-1.5 0-2.1l5.1-5.1c.6-.6 1.5-.6 2.1 0 .6.6.6 1.5 0 2.1l-5 5c-.3.3-.7.5-1.1.5zm28.5 58.9c-.4 0-.8-.1-1.1-.4-.6-.6-.6-1.5 0-2.1l9.6-9.6c.6-.6 1.5-.6 2.1 0s.6 1.5 0 2.1L62.9 83c-.3.2-.6.4-1 .4zm0-9.6c-.4 0-.8-.1-1.1-.4-.6-.6-.6-1.5 0-2.1l9.4-9.4c.6-.6 1.5-.6 2.1 0 .6.6.6 1.5 0 2.1l-9.4 9.4c-.3.2-.6.4-1 .4zm-9.2 8.6c-.4 0-.8-.1-1.1-.4-.6-.6-.6-1.5 0-2.1l5.1-5.1c.6-.6 1.5-.6 2.1 0s.6 1.5 0 2.1L53.7 82c-.2.2-.6.4-1 .4zM84.5 98h-79c-3 0-5.5-2.5-5.5-5.5V85c0-.8.7-1.5 1.5-1.5S3 84.1 3 85v7.5C3 93.9 4.1 95 5.5 95h79c1.4 0 2.5-1.1 2.5-2.5V85c0-.8.7-1.5 1.5-1.5s1.5.6 1.5 1.5v7.5c0 3-2.5 5.5-5.5 5.5z"/><path d="M16.9 105.2H11c-1.9 0-3.5-1.6-3.5-3.5v-5.3c0-.8.7-1.4 1.5-1.4s1.5.7 1.5 1.5v5.3c0 .3.2.5.5.5h5.8c.3 0 .5-.2.5-.5v-5.3c0-.8.7-1.5 1.5-1.5s1.5.7 1.5 1.5v5.3c.1 1.9-1.5 3.4-3.4 3.4zm62 0H73c-1.9 0-3.5-1.6-3.5-3.5v-5.3c0-.8.7-1.5 1.5-1.5s1.5.7 1.5 1.5v5.3c0 .3.2.5.5.5h5.8c.3 0 .5-.2.5-.5v-5.3c0-.8.7-1.5 1.5-1.5s1.5.7 1.5 1.5v5.3c.1 2-1.5 3.5-3.4 3.5z"/></symbol><symbol viewBox="0 0 125 125" id="eqt7"><circle cx="66.6" cy="73.5" r="50.5" fill="#ffeb7b"/><path d="M66.5 125c-13.2 0-26.3-5-36.3-15-.6-.6-.6-1.6 0-2.2.6-.6 1.6-.6 2.2 0 18.9 18.9 49.5 18.9 68.4 0 9.1-9.1 14.2-21.3 14.2-34.2s-5-25.1-14.2-34.2c-.6-.6-.6-1.6 0-2.2.6-.6 1.6-.6 2.2 0 9.7 9.7 15.1 22.6 15.1 36.3 0 13.7-5.3 26.6-15.1 36.3C92.8 120 79.6 125 66.5 125z"/><path d="M106.9 59.5H-.2l33.3-19.3h41.7l32.1 19.3zm-96-3h85.2L73.9 43.2h-40l-23 13.3z"/><path d="M72 41.7h-3v-4.5c0-.3-.2-.5-.5-.5H38.8c-.3 0-.5.2-.5.5v4.5h-3v-4.5c0-1.9 1.6-3.5 3.5-3.5h29.7c1.9 0 3.5 1.6 3.5 3.5v4.5z"/><path d="M65 36.7H41.3v-9.8H65v9.8zm-20.7-3H62v-3.8H44.3v3.8z"/><path d="M65.3 29.8H41.2c-1.9 0-3.5-1.6-3.5-3.5v-3.2c0-1.9 1.6-3.5 3.5-3.5h24.2c1.9 0 3.5 1.6 3.5 3.5v3.2c-.1 2-1.6 3.5-3.6 3.5zm-24.1-7.1c-.3 0-.5.2-.5.5v3.2c0 .3.2.5.5.5h24.2c.3 0 .5-.2.5-.5v-3.2c0-.3-.2-.5-.5-.5H41.2z"/><path d="M60.2 21.2h-3V16c0-.3-.2-.5-.5-.5h-6.3c-.3 0-.5.2-.5.5v5.2h-3V16c0-1.9 1.6-3.5 3.5-3.5h6.3c1.9 0 3.5 1.6 3.5 3.5v5.2zm-7 69.1c-.8 0-1.5-.7-1.5-1.5V58c0-.8.7-1.5 1.5-1.5s1.5.7 1.5 1.5v30.8c0 .9-.7 1.5-1.5 1.5z"/><path d="M57.1 91.2h-.4c-.8 0-1.5-.7-1.4-1.6 0-.8.7-1.5 1.6-1.4 1.1 0 1.9-.2 2.3-.6.1-.1.4-.4.4-1.1 0-.6 0-2-6.4-2-6.2 0-9.4-1.7-9.4-5.2 0-5.1 5.4-5.7 9.5-5.7 6.3 0 6.3-2.4 6.3-3.2 0-2.3-4-2.7-6.3-2.7-3.5 0-5.6-.6-6.9-1.8-1.6-1.6-1.6-4-1.6-7.3v-.7c0-.8.7-1.5 1.5-1.5s1.5.7 1.5 1.5v.7c0 2.6 0 4.4.8 5.2.6.6 2.2 1 4.7 1 8.1 0 9.3 3.6 9.3 5.7 0 2.3-1.2 6.2-9.3 6.2-6.5 0-6.5 1.9-6.5 2.7 0 1.9 4 2.2 6.4 2.2 3.1 0 9.4 0 9.4 5 0 1.7-.7 2.7-1.3 3.3-1.1.8-2.5 1.3-4.2 1.3zm-3.9-75.7c-.8 0-1.5-.7-1.5-1.5V2c0-.8.7-1.5 1.5-1.5s1.5.7 1.5 1.5v12c0 .8-.7 1.5-1.5 1.5z"/><path d="M67.4 59.7l4.3 22.2c-.2 10.1-8.4 18.2-18.5 18.2S34.9 92 34.7 81.9l4.6-22.2h28.1m2.5-3.1h-33l-5.2 25c0 11.9 9.7 21.6 21.6 21.6 11.9 0 21.6-9.7 21.6-21.6l-5-25z"/></symbol><symbol viewBox="0 0 125 125" id="eqt8"><circle cx="61.5" cy="73.5" r="50.5" fill="#ffeb7b"/><path d="M61.4 125c-13.2 0-26.3-5-36.3-15-.6-.6-.6-1.6 0-2.2.6-.6 1.6-.6 2.2 0 18.9 18.9 49.5 18.9 68.4 0 9.1-9.1 14.2-21.3 14.2-34.2s-5-25.1-14.2-34.2c-.6-.6-.6-1.6 0-2.2.6-.6 1.6-.6 2.2 0 9.7 9.7 15.1 22.6 15.1 36.3 0 13.7-5.3 26.6-15.1 36.3C87.8 120 74.6 125 61.4 125z"/><path d="M69.7 79.2H37.6c-8.4 0-15.2-8.3-15.2-15.2V26.3h61.1v37.2c.1 8.9-8.4 15.7-13.8 15.7zM25.4 29.3V64c0 4.8 5.2 12.2 12.2 12.2h32.1c3.7 0 10.9-5.4 10.9-12.7V29.3H25.4z"/><path d="M58.9 89.1h-10c-2.5 0-4.5-2-4.5-4.5v-8.4h19v8.4c0 2.5-2 4.5-4.5 4.5zm-11.5-9.9v5.4c0 .8.7 1.5 1.5 1.5h10c.8 0 1.5-.7 1.5-1.5v-5.4h-13zM23.9 39.3H82v3H23.9zM49.5 53h-3.6v3.7h3.6V53zm6.3 0h-3.6v3.7h3.6V53zm6.1 0h-3.6v3.7h3.6V53zM41.4 29.3h-11V6.5c0-3 2.5-5.5 5.5-5.5h.1c3 0 5.5 2.5 5.5 5.5v22.8zm-8-3h5.1V6.5C38.5 5.1 37.4 4 36 4h-.1c-1.4 0-2.5 1.1-2.5 2.5v19.8zm41 1.5h-3V6.5c0-1.4-1.1-2.5-2.5-2.5s-2.6 1.1-2.6 2.5v21.3h-3V6.5c0-3 2.5-5.5 5.5-5.5 3.1 0 5.6 2.5 5.6 5.5v21.3z"/><path d="M37.5 105.5c-12.9 0-16.9-12.4-16.9-16.9 0-3.3-2.9-4.4-4.4-4.4H1.5c-.8 0-1.5-.7-1.5-1.5s.7-1.5 1.5-1.5h14.8c3.1 0 7.4 2.3 7.4 7.4 0 3.7 3.3 13.9 13.9 13.9 11.7 0 14.9-3.2 14.9-14.9 0-.8.7-1.5 1.5-1.5s1.5.7 1.5 1.5c-.1 13.4-4.6 17.9-18 17.9z"/></symbol><symbol viewBox="0 0 96.124 96.123" id="fb"><path d="M72.089.02L59.624 0C45.62 0 36.57 9.285 36.57 23.656v10.907H24.037a1.96 1.96 0 0 0-1.96 1.961v15.803a1.96 1.96 0 0 0 1.96 1.96H36.57v39.876a1.96 1.96 0 0 0 1.96 1.96h16.352a1.96 1.96 0 0 0 1.96-1.96V54.287h14.654a1.96 1.96 0 0 0 1.96-1.96l.006-15.803a1.963 1.963 0 0 0-1.961-1.961H56.842v-9.246c0-4.444 1.059-6.7 6.848-6.7l8.397-.003a1.96 1.96 0 0 0 1.959-1.96V1.98A1.96 1.96 0 0 0 72.089.02z"/></symbol><symbol viewBox="0 0 97.395 97.395" id="inst"><path d="M12.501 0h72.393c6.875 0 12.5 5.09 12.5 12.5v72.395c0 7.41-5.625 12.5-12.5 12.5H12.501C5.624 97.395 0 92.305 0 84.895V12.5C0 5.09 5.624 0 12.501 0zm58.447 10.821a4.395 4.395 0 0 0-4.383 4.385v10.495a4.396 4.396 0 0 0 4.383 4.385h11.008a4.398 4.398 0 0 0 4.385-4.385V15.206a4.397 4.397 0 0 0-4.385-4.385H70.948zm15.439 30.367h-8.572a28.486 28.486 0 0 1 1.25 8.355c0 16.2-13.556 29.332-30.275 29.332-16.718 0-30.272-13.132-30.272-29.332 0-2.904.438-5.708 1.25-8.355h-8.945v41.141a3.884 3.884 0 0 0 3.872 3.872h67.822a3.883 3.883 0 0 0 3.872-3.872V41.188h-.002zM48.789 29.533c-10.802 0-19.56 8.485-19.56 18.953s8.758 18.953 19.56 18.953c10.803 0 19.562-8.485 19.562-18.953s-8.758-18.953-19.562-18.953z"/></symbol><symbol viewBox="0 0 63 58.7" id="kindergarten"><path d="M31.5 58.7C16.9 58.7 5 46.8 5 32.2c0-8.4 3.8-16.1 10.5-21.1l1.2 1.6C10.5 17.3 7 24.5 7 32.2c0 13.5 11 24.5 24.5 24.5S56 45.7 56 32.2c0-7.6-3.4-14.6-9.4-19.3l1.2-1.6C54.3 16.4 58 24 58 32.2c0 14.6-11.9 26.5-26.5 26.5z"/><path d="M6.5 39.9C2.9 39.9 0 37 0 33.4s2.9-6.5 6.5-6.5v2c-2.5 0-4.5 2-4.5 4.5s2 4.5 4.5 4.5v2zm50.1 0v-2c2.5 0 4.5-2 4.5-4.5s-2-4.5-4.5-4.5v-2c3.6 0 6.5 2.9 6.5 6.5-.1 3.6-3 6.5-6.5 6.5zM25.5 29.7c-.3 0-.6-.2-.8-.5-1-1.5-2.6-2.3-4.3-2.3-1.7 0-3.3.9-4.3 2.3-.3.5-.9.6-1.4.3-.5-.3-.6-.9-.3-1.4 1.3-2 3.6-3.2 6-3.2s4.7 1.2 6 3.2c.3.5.2 1.1-.3 1.4-.2.2-.4.2-.6.2zm22 0c-.3 0-.6-.2-.8-.5-1-1.5-2.6-2.3-4.3-2.3-1.7 0-3.3.9-4.3 2.3-.3.5-.9.6-1.4.3-.5-.3-.6-.9-.3-1.4 1.3-2 3.6-3.2 6-3.2s4.7 1.2 6 3.2c.3.5.2 1.1-.3 1.4-.2.1-.4.2-.6.2zm-16 19c-2.4 0-4.7-1.2-6-3.2-.3-.5-.2-1.1.3-1.4.5-.3 1.1-.2 1.4.3 1 1.5 2.6 2.3 4.3 2.3 1.7 0 3.4-.9 4.3-2.3.3-.5.9-.6 1.4-.3s.6.9.3 1.4c-1.3 2-3.6 3.2-6 3.2zm.8-29.8h-1.5c-1.6 0-3-1.3-3-3V8c0-1.6 1.3-3 3-3h1.5c1.6 0 3 1.3 3 3v7.9c0 1.7-1.3 3-3 3zM30.9 7.4c-.3 0-.6.3-.6.6v7.9c0 .3.3.6.6.6h1.5c.3 0 .6-.3.6-.6V8c0-.3-.3-.6-.6-.6h-1.5z"/><path d="M26.7 10.3c-3.4 0-8-2.2-8.6-2.5H18c-1.6-.9-5.2-3.4-5-5.7 0-.7.4-1.2.9-1.6 2.1-1.3 7.5.7 8.6 1.1 2.2.9 6.8 3.4 7.6 5.4.3.7.1 1.2 0 1.5-.3.7-1 1.2-1.8 1.5-.4.2-1 .3-1.6.3zm-7.5-4.6c2.4 1.1 6.7 2.7 8.4 2.1.1 0 .2-.1.3-.1-.6-.9-3.4-2.8-6.1-3.9-2.7-1-5.3-1.5-6.3-1.4.3.7 2 2.2 3.7 3.3zm17.5 4.8c-.6 0-1.2-.1-1.7-.2-.8-.3-1.4-.8-1.8-1.5-.2-.3-.3-.9 0-1.5.8-2.1 5.4-4.6 7.6-5.4 1.1-.4 6.5-2.4 8.6-1.1.6.2.9.7.9 1.4.2 2.3-3.4 4.8-5 5.7h-.1c-.6.3-5.2 2.6-8.5 2.6zm-1.2-2.7c.1 0 .1.1.3.1 1.7.6 6-1 8.4-2.1C46 4.7 47.6 3.3 48 2.5c-.9-.2-3.6.3-6.3 1.4C38.9 5 36.1 7 35.5 7.8z"/><path d="M18.1 20c-2.4 0-3.9-.5-4.5-1.5-.4-.6-.4-1.3-.1-1.9l.1-.2c1.3-1.6 1.4-4.6 1.4-5.5 0-.9-.5-3.6-2-8.1-.2-.6.1-1.3.8-1.5.6-.2 1.3.1 1.5.8.6 2 2.1 6.8 2.1 8.9 0 1.6-.2 4.4-1.5 6.4.4.1 1.4.3 3.4.2 4-.2 8.2-2.4 8.9-3.2.4-.5 1.2-.6 1.7-.2.5.4.6 1.2.2 1.7-1.2 1.5-6 3.8-10.6 4.1h-1.4zm27.1 0h-1.3c-4.6-.3-9.4-2.6-10.6-4.1-.4-.5-.3-1.3.2-1.7.5-.4 1.3-.3 1.7.2.7.8 4.8 3 8.9 3.2 1.9.1 2.9-.1 3.4-.2-1.3-2-1.5-4.9-1.5-6.4 0-2.1 1.5-6.9 2.1-8.9.2-.6.9-1 1.5-.8.6.2 1 .9.8 1.5-1.5 4.6-2 7.2-2 8.1 0 .9.1 3.9 1.4 5.5l.1.2c.3.6.3 1.3-.1 1.9-.7 1-2.2 1.5-4.6 1.5z"/></symbol><symbol viewBox="0 0 95.481 95.481" id="ok"><path d="M43.041 67.254c-7.402-.772-14.076-2.595-19.79-7.064-.709-.556-1.441-1.092-2.088-1.713-2.501-2.402-2.753-5.153-.774-7.988 1.693-2.426 4.535-3.075 7.489-1.682.572.27 1.117.607 1.639.969 10.649 7.317 25.278 7.519 35.967.329 1.059-.812 2.191-1.474 3.503-1.812 2.551-.655 4.93.282 6.299 2.514 1.564 2.549 1.544 5.037-.383 7.016-2.956 3.034-6.511 5.229-10.461 6.761-3.735 1.448-7.826 2.177-11.875 2.661.611.665.899.992 1.281 1.376 5.498 5.524 11.02 11.025 16.5 16.566 1.867 1.888 2.257 4.229 1.229 6.425-1.124 2.4-3.64 3.979-6.107 3.81-1.563-.108-2.782-.886-3.865-1.977-4.149-4.175-8.376-8.273-12.441-12.527-1.183-1.237-1.752-1.003-2.796.071-4.174 4.297-8.416 8.528-12.683 12.735-1.916 1.889-4.196 2.229-6.418 1.15-2.362-1.145-3.865-3.556-3.749-5.979.08-1.639.886-2.891 2.011-4.014 5.441-5.433 10.867-10.88 16.295-16.322.359-.362.694-.746 1.217-1.305z"/><path d="M47.55 48.329c-13.205-.045-24.033-10.992-23.956-24.218C23.67 10.739 34.505-.037 47.84 0c13.362.036 24.087 10.967 24.02 24.478-.068 13.199-10.971 23.897-24.31 23.851zm12.001-24.186c-.023-6.567-5.253-11.795-11.807-11.801-6.609-.007-11.886 5.316-11.835 11.943.049 6.542 5.324 11.733 11.896 11.709 6.552-.023 11.768-5.285 11.746-11.851z"/></symbol><symbol viewBox="0 0 52.1 49.1" id="phone"><circle cx="27" cy="24" r="24" fill="#ffeb7b"/><path d="M27.7 18c0 .5.4.9.9.9s.9-.4.9-.9c0-6.5-5.3-11.8-11.8-11.8-.5 0-.9.4-.9.9s.4.9.9.9c5.5 0 10 4.5 10 10zm-10.8-6.1c0 .5.4.9.9.9 2.8 0 5.1 2.2 5.1 5.1 0 .5.4.9.9.9.6 0 .9-.4.9-.9 0-3.8-3.1-6.8-6.8-6.8-.7 0-1 .3-1 .8zM17.7.7c-.5 0-.9.4-.9.9s.4.9.9.9c8.5 0 15.4 7 15.4 15.4 0 .5.4.9.9.9.6 0 .9-.4.9-.9C34.9 8.5 27.3.7 17.7.7zm5 20.6c-.1-.1-.4-.2-.6-.2-.2 0-.5.1-.6.2l-1.9 1.9c-.7.7-1.9.7-2.6 0l-4.4-4c-.7-.7-.7-1.9 0-2.6l2.1-2.1c.4-.4.4-.9 0-1.3L6 4.6c-.1-.1-.3-.3-.5-.3-.3 0-.5.2-.6.3-.2.1-2.9 2.8-3.5 3.5-1.7 1.7-1.9 5.1-.7 8 2.6 6.5 11.2 14.4 18.4 18.7.6.4 2 .7 3.4.7 1.3 0 3.2-.2 4.8-1.7 1.5-1.3 3.3-3.2 3.4-3.3.4-.4.4-.9 0-1.2l-8-8zm3.5 11.2c-1.2 1.1-2.6 1.2-3.7 1.2-1.3 0-2.4-.4-2.5-.5C11.9 28.4 4.5 21 2.4 15.4c-.9-2.5-.6-5.2.2-6.1l2.8-2.8 7.3 7.3-1.5 1.5c-1.4 1.4-1.4 3.7 0 5.1l4.4 4c1.3 1.3 3.7 1.3 5.1 0l1.3-1.3 6.8 6.8c-.6.8-1.7 1.9-2.6 2.6z"/><path d="M27 49.1c-6.4 0-12.8-2.4-17.7-7.3-.4-.4-.4-1 0-1.4s1-.4 1.4 0c9 9 23.6 9 32.6 0 4.4-4.4 6.8-10.1 6.8-16.3 0-6.2-2.4-11.9-6.8-16.3-.4-.4-.4-1 0-1.4s1-.4 1.4 0c4.7 4.7 7.3 11 7.3 17.7 0 6.7-2.6 13-7.3 17.7-4.8 4.8-11.3 7.3-17.7 7.3z"/></symbol><symbol viewBox="0 0 6.3 10" id="ruble"><path d="M2.1 10H.8V5.8H0V4.5h.8V0h2.9c.7 0 2.5.5 2.5 2.8 0 2.2-1.6 3-3 3H2.1V10zm0-5.5h1.1C4.4 4.5 5 3.9 5 2.8c0-1.4-1-1.5-1.2-1.5H2.1v3.2z"/><path d="M0 6.7h6.3V8H0z"/></symbol><symbol viewBox="-3 1 64 64" id="school"><path d="M55.7 54.3c.6 0 1.1-.5 1.1-1.1V14.9c0-.6-.5-1.1-1.1-1.1-.6 0-1.1.5-1.1 1.1v38.4c0 .6.5 1 1.1 1zm3.2 5.4v-1.1h-3.2c-.6 0-1.1-.5-1.1-1.1s.5-1.1 1.1-1.1h3.2V11.7h-3.2c-.6 0-1.1-.5-1.1-1.1 0-.6.5-1.1 1.1-1.1h2.5l-2.5-5.1-3.2 6.4v48.8c0 1.8 1.4 3.2 3.2 3.2 1.7.1 3.2-1.4 3.2-3.1zM61 10.6v49.1c0 2.9-2.4 5.3-5.3 5.3s-5.3-2.4-5.3-5.3V10.6c0-.2 0-.3.1-.5l4.3-8.5c.4-.7 1.5-.7 1.9 0l4.2 8.4c0 .1.1.4.1.6zM30.1 33H19.4c-.6 0-1.1.5-1.1 1.1 0 .6.5 1.1 1.1 1.1h10.7c.6 0 1.1-.5 1.1-1.1-.1-.6-.5-1.1-1.1-1.1zm-10.7-2.1h6.4c.6 0 1.1-.5 1.1-1.1 0-.6-.5-1.1-1.1-1.1h-6.4c-.6 0-1.1.5-1.1 1.1 0 .6.5 1.1 1.1 1.1zm-5.3 8.5h21.3V24.5H14.1v14.9zm-2.2 1.1V23.4c0-.6.5-1.1 1.1-1.1h23.5c.6 0 1.1.5 1.1 1.1v17.1c0 .6-.5 1.1-1.1 1.1H13c-.6-.1-1.1-.5-1.1-1.1zM-.9 10.7v49c0 1.7 1.5 3.2 3.2 3.2h40.5c1.7 0 3.2-1.5 3.2-3.2v-48H2.3c-.8 0-2.1-.3-3.2-1zm48-7.6H1.3c-1.2 0-2.1 1-2.1 2.1v1.1c0 3 2.7 3.2 3.2 3.2h44.8c.6 0 1.1.5 1.1 1.1v49.1c0 2.9-2.4 5.3-5.3 5.3H2.3C-.5 65-3 62.6-3 59.7V5.3C-3 2.9-1.1 1 1.3 1h45.9c.6 0 1.1.5 1.1 1.1s-.6 1-1.2 1zM2.3 60.7c.6 0 1.1-.5 1.1-1.1V14.9c0-.6-.5-1.1-1.1-1.1s-1.1.5-1.1 1.1v44.8c.1.6.6 1 1.1 1zM45 5.3c.6 0 1.1.5 1.1 1.1s-.5 1-1.1 1H2.3c-.6 0-1.1-.5-1.1-1.1s.5-1.1 1.1-1.1H45z"/></symbol><symbol viewBox="32 -32 128 128" id="shop"><path d="M124.1 87.1c-6.3 0-11.4-5.1-11.4-11.4s5.1-11.4 11.4-11.4c6.3 0 11.4 5.1 11.4 11.4s-5.1 11.4-11.4 11.4zm0-18.9c-4.1 0-7.4 3.3-7.4 7.4s3.3 7.4 7.4 7.4c4.1 0 7.4-3.3 7.4-7.4s-3.3-7.4-7.4-7.4zM78.8 87.1c-6.3 0-11.4-5.1-11.4-11.4s5.1-11.4 11.4-11.4 11.4 5.1 11.4 11.4-5.1 11.4-11.4 11.4zm0-18.9c-4.1 0-7.4 3.3-7.4 7.4s3.3 7.4 7.4 7.4 7.4-3.3 7.4-7.4-3.3-7.4-7.4-7.4zm49.8-9.1H73.8c-4.6 0-8.5-3.3-9.4-7.7l-10-54c-.1-.6 0-1.2.4-1.6s.9-.7 1.5-.7H151c1.9 0 3.7.9 4.8 2.5 1.1 1.6 1.3 3.6.6 5.4l-18.9 50c-1.4 3.7-5 6.1-8.9 6.1zM58.7-.9l9.7 51.6c.5 2.6 2.8 4.5 5.5 4.5h54.8c2.3 0 4.4-1.4 5.2-3.6l18.8-50.1c.2-.6.2-1.2-.2-1.7-.3-.5-.9-.8-1.5-.8l-92.3.1z"/><path d="M56.3-.9c-.9 0-1.7-.6-1.9-1.5L52-12.7c-.6-2.5-2.8-4.3-5.4-4.3h-9.1c-1.1 0-2-.9-2-2s.9-2 2-2h9.1c4.5 0 8.3 3 9.3 7.4l2.4 10.2c.3 1.1-.4 2.2-1.5 2.4-.2 0-.3.1-.5.1zM92 12H59.2c-1.1 0-2-.9-2-2s.9-2 2-2H92c1.1 0 2 .9 2 2s-.9 2-2 2z"/></symbol><symbol viewBox="0 0 633.48 633.48" id="sport"><path d="M540.711 92.771C480.887 32.946 401.344 0 316.74 0S152.596 32.946 92.771 92.771C32.947 152.596 0 232.136 0 316.74s32.947 164.145 92.771 223.969S232.137 633.48 316.74 633.48s164.146-32.947 223.971-92.771 92.77-139.364 92.77-223.969-32.946-164.144-92.77-223.969zM93.037 152.02l1.299.74c1.262.719 28.605 16.131 65.066 21.672a245.73 245.73 0 0 0 44.314 4.034c24.336-.001 48.379-3.599 71.535-10.691 24.004 29.416 40.52 63.142 49.422 100.792-33.738 10.408-74.768 15.898-119.42 15.898-69.842 0-139.117-13.36-177.303-33.726 9.014-39.455 25.934-75.926 48.99-107.671a245.151 245.151 0 0 0 16.097 8.952zm239.434 186.152c0 29.521-4.766 58.648-13.873 86.304-33.568 8.254-72.545 12.616-113.197 12.616-67.178 0-132.676-11.916-171-30.733-8.998-28.284-13.869-58.392-13.869-89.618 0-17.942 1.605-35.516 4.676-52.587 40.773 20.315 110.369 33.51 180.047 33.51 45.441 0 87.383-5.57 122.162-16.135 3.358 18.044 5.054 36.935 5.054 56.643zm-156.043 207.71h.004c5.529 0 11.086-.111 16.564-.331 5.605 5.851 21.711 21.583 46.826 37.423 16.396 10.341 38.574 21.808 65.346 29.729-68.26-2.637-130.66-28.474-179.529-69.842a428.075 428.075 0 0 0 50.789 3.021zM174 532.586c-21.395 0-43.52-1.958-65.908-5.803-29.264-29.071-52.496-64.196-67.66-103.316C81.33 440.05 142.836 450.289 205.4 450.289c38.324 0 75.273-3.791 107.859-11.008-10.895 27.677-26.256 53.607-45.668 76.634-24.782 10.906-57.04 16.671-93.591 16.671zm162.494-112.655c16.145-48.575 18.713-110.898 5.453-150.126l-.082-.242c-10.141-42.915-29.807-82.378-55.178-109.441 19.795-19.462 50.766-35.412 86.135-45.462 43.404 33.315 71.143 101.299 74.379 182.863 4.16 104.808-32.873 204.276-96.816 260.861-26.389-8.201-51.018-20.688-68.605-37.877 27.538-34.18 44.601-68.437 54.714-100.576zm119.174-316.908c11.363 0 22.293.688 32.695 2.021 57.055 62.319 84.371 148.269 76.949 242.389-3.572 45.3-15.262 90.05-33.807 129.413-18.062 38.347-41.811 69.867-68.75 91.292-9.936 1.595-20.867 2.445-32.52 2.445-20.164 0-42.752-2.598-64.828-8.029 31.266-29.712 56.295-69.452 72.762-115.735 16.578-46.583 24.26-98.391 22.219-149.82-3.199-80.572-29.75-148.909-71.754-186.378 21.624-4.893 44.436-7.598 67.034-7.598zm47.465 443.747c41.389-49.544 69.281-121.503 75.338-198.298 7.229-91.667-17.391-175.998-69.527-239.775 9.391 2.165 18.201 4.935 26.326 8.294 48.219 52.709 77.682 122.851 77.682 199.75-.001 92.755-42.868 175.675-109.819 230.029zm-8.278-454.141l-.389-.416-2.305-.327c-.674-.096-16.754-2.342-39.703-2.342-30.576 0-57.67 3.863-80.529 11.483l-.285.095c-40.633 11.127-75.895 29.839-97.754 53.244a230.717 230.717 0 0 1-70.174 10.902c-6.576 0-13.117-.309-19.619-.855 9.662-11.286 28.801-31.88 55.518-52.28 36.154-27.606 94.031-60.515 164.436-60.515 19.482 0 39.164 2.521 58.713 7.484a297.866 297.866 0 0 1 51.785 37.355c-6.328-1.546-12.908-2.817-19.694-3.828zM340.291 21.466a294.05 294.05 0 0 1 79.197 17.45 242.353 242.353 0 0 0-15.438-.495c-74.246 0-134.932 34.515-172.768 63.47-34.035 26.046-55.762 51.815-62.619 60.437-2.74-.294-5.424-.671-8.074-1.09a230.118 230.118 0 0 1-53.004-16.851C152.29 83.569 216.747 53.038 263.704 38.063c31.255-9.969 58.993-14.529 76.587-16.597zm23.566 587.722c-77.076-2.977-132.459-45.965-153.652-65.362 22.965-2.577 43.641-7.681 61.098-15.125 16.293 16.352 39.447 29.994 67.424 39.722l-.447.383 11.416 3.561c1.561.487 38.73 11.932 80.668 11.935h.01c4.934 0 9.746-.164 14.424-.486a293.93 293.93 0 0 1-80.941 25.372zM255 27.021C206.043 43.312 140.93 75.628 95.582 138.48a232.798 232.798 0 0 1-10.609-5.976C127.023 79.715 186.691 41.562 255 27.021z"/></symbol><symbol viewBox="0 0 304.36 304.36" id="vk"><path d="M261.945 175.576c10.096 9.857 20.752 19.131 29.807 29.982 4 4.822 7.787 9.798 10.684 15.394 4.105 7.955.387 16.709-6.746 17.184l-44.34-.02c-11.436.949-20.559-3.655-28.23-11.474-6.139-6.253-11.824-12.908-17.727-19.372-2.42-2.642-4.953-5.128-7.979-7.093-6.053-3.929-11.307-2.726-14.766 3.587-3.523 6.421-4.322 13.531-4.668 20.687-.475 10.441-3.631 13.186-14.119 13.664-22.414 1.057-43.686-2.334-63.447-13.641-17.422-9.968-30.932-24.04-42.691-39.971-22.895-31.021-40.428-65.108-56.186-100.15C-2.01 76.458.584 72.22 9.295 72.07c14.465-.281 28.928-.261 43.41-.02 5.879.086 9.771 3.458 12.041 9.012 7.826 19.243 17.402 37.551 29.422 54.521 3.201 4.518 6.465 9.036 11.113 12.216 5.142 3.521 9.057 2.354 11.476-3.374 1.535-3.632 2.207-7.544 2.553-11.434 1.146-13.383 1.297-26.743-.713-40.079-1.234-8.323-5.922-13.711-14.227-15.286-4.238-.803-3.607-2.38-1.555-4.799 3.564-4.172 6.916-6.769 13.598-6.769h50.111c7.889 1.557 9.641 5.101 10.721 13.039l.043 55.663c-.086 3.073 1.535 12.192 7.07 14.226 4.43 1.448 7.35-2.096 10.008-4.905 11.998-12.734 20.561-27.783 28.211-43.366 3.395-6.852 6.314-13.968 9.143-21.078 2.096-5.276 5.385-7.872 11.328-7.757l48.229.043c1.43 0 2.877.021 4.262.258 8.127 1.385 10.354 4.881 7.844 12.817-3.955 12.451-11.65 22.827-19.174 33.251-8.043 11.129-16.645 21.877-24.621 33.072-7.328 10.223-6.746 15.376 2.357 24.255zm0 0" fill-rule="evenodd" clip-rule="evenodd"/></symbol></svg>