<svg version="1.1" xmlns="http://www.w3.org/2000/svg" xml:space="preserve" xmlns:xlink="http://www.w3.org/1999/xlink" viewBox="0 0 1060 650" class="floor-svg">
	<g id="svg-bg">
		<image x="0" y="0" width="1060" height="650" xlink:href="/img/layouts/bg-apartment-10-12.png"/>
	</g>
	<g id="_1147911520">
		<polygon class="floor-polygon" data-apartment-id="1" points="1,309 1,198 8,198 8,159 17,159 17,160 145,160 145,150 388,150 388,160 472,160 472,160 479,160 479,372 375,372 375,370 348,370 348,372 286,373 286,377 279,377 279,372 229,372 153,372 153,321 1,321 "/>
		<polygon class="floor-polygon" data-apartment-id="1" points="1,313 160,313 160,366 229,366 229,380 225,380 225,406 229,406 229,415 286,415 286,637 279,637 279,637 273,642 273,642 270,645 269,644 255,648 255,649 252,650 251,649 236,649 236,650 233,650 233,649 218,645 218,646 214,645 215,644 202,635 202,636 199,633 200,633 190,620 183,620 183,605 78,605 78,599 40,599 40,429 1,429 "/>
		<polygon class="floor-polygon" data-apartment-id="1" points="365,415 365,418 392,418 392,415 479,415 479,637 473,637 473,636 286,636 286,637 279,637 279,415 "/>
		<polygon class="floor-polygon" data-apartment-id="1" points="473,415 560,415 560,418 586,418 586,415 671,415 671,637 665,637 665,636 479,636 479,637 473,637 "/>
		<polygon class="floor-polygon" data-apartment-id="1" points="984,415 984,564 979,564 979,606 972,606 972,605 872,605 872,605 767,605 767,620 762,619 752,633 753,633 737,644 737,645 734,646 733,645 719,649 719,650 715,650 715,649 700,649 700,650 696,649 697,648 682,644 682,645 679,642 679,642 671,635 671,637 665,637 664,415 751,415 751,418 778,418 778,415 866,415 "/>
		<path class="floor-polygon" data-apartment-id="1" d="M859 152l0 -15 197 0 0 291 -19 0 0 122 0 6 0 4 0 0 0 2c0,24 -21,43 -45,43l-13 0 0 1 -7 0 0 -46 0 0 0 -138 -113 0 0 -74 4 0 0 -26 -4 0 0 -170z"/>
		<polygon class="floor-polygon" data-apartment-id="1" points="885,2 1041,2 1041,0 1048,0 1048,40 1056,40 1056,145 866,145 866,313 837,313 837,310 812,310 812,313 708,313 708,240 645,240 634,240 634,211 638,211 686,164 686,160 700,160 700,40 859,40 859,0 866,0 866,2 "/>
	</g>
</svg>