<?xml version="1.0" encoding="utf-8"?>
<!-- Generator: Adobe Illustrator 19.0.0, SVG Export Plug-In . SVG Version: 6.00 Build 0)  -->
<svg version="1.1" id="Слой_1" xmlns="http://www.w3.org/2000/svg" xmlns:xlink="http://www.w3.org/1999/xlink" x="0px" y="0px"
	 viewBox="0 0 64.2 54.7" style="enable-background:new 0 0 64.2 54.7;" xml:space="preserve">
<style type="text/css">
	.st0{fill:#1D1D1B;}
</style>
<path id="XMLID_23_" class="st0" d="M41.1,54.7H5.5c-3.1,0-5.5-2.5-5.5-5.5V27.4c0-3.1,2.5-5.5,5.5-5.5h35.5c3.1,0,5.5,2.5,5.5,5.5
	v21.8C46.6,52.2,44.1,54.7,41.1,54.7z M5.5,24c-1.8,0-3.3,1.5-3.3,3.3v21.8c0,1.8,1.5,3.3,3.3,3.3h35.5c1.8,0,3.3-1.5,3.3-3.3V27.4
	c0-1.8-1.5-3.3-3.3-3.3H5.5z"/>
<rect id="XMLID_16_" x="1.1" y="29.7" class="st0" width="44.4" height="2.2"/>
<polygon id="XMLID_19_" class="st0" points="41.8,36.3 37.5,36.3 37.5,40.5 41.8,40.5 41.8,36.3 "/>
<path id="XMLID_36_" class="st0" d="M58.7,32.9h-8.7c-0.6,0-1.1-0.5-1.1-1.1s0.5-1.1,1.1-1.1h8.7c1.8,0,3.3-1.5,3.3-3.3V5.5
	c0-1.8-1.5-3.3-3.3-3.3H22.9c-1.8,0-3.3,1.5-3.3,3.3v13.6c0,0.6-0.5,1.1-1.1,1.1s-1.1-0.5-1.1-1.1V5.5c0-3.1,2.5-5.5,5.5-5.5h35.7
	c3.1,0,5.5,2.5,5.5,5.5v21.8C64.2,30.4,61.7,32.9,58.7,32.9z"/>
<path id="XMLID_34_" class="st0" d="M45.5,19.3H22.1c-0.6,0-1.1-0.5-1.1-1.1s0.5-1.1,1.1-1.1h23.4c0.6,0,1.1,0.5,1.1,1.1
	S46.1,19.3,45.5,19.3z"/>
</svg>
