<?xml version="1.0" encoding="utf-8"?>
<!-- Generator: Adobe Illustrator 19.0.0, SVG Export Plug-In . SVG Version: 6.00 Build 0)  -->
<svg version="1.1" id="Layer_1" xmlns="http://www.w3.org/2000/svg" xmlns:xlink="http://www.w3.org/1999/xlink" x="0px" y="0px"
	 viewBox="-13 1 64 64" style="enable-background:new -13 1 64 64;" xml:space="preserve">
<path d="M32.4,12.2H6.9c-1.7,0-3-1.3-3-3V8.1c0-1.7,1.3-3,3-3h25.4c1.7,0,3,1.3,3,3v1.1C35.4,10.9,34,12.2,32.4,12.2z M6.9,7.1
	c-0.6,0-1,0.4-1,1v1.1c0,0.6,0.4,1,1,1h25.4c0.6,0,1-0.4,1-1V8.1c0-0.6-0.4-1-1-1H6.9z"/>
<path d="M39.9,59.6H-1.9c-3.9,0-7-3.1-7-7V8.3c0-3.9,3.1-7,7-7h41.8c3.9,0,7,3.1,7,7v44.3C46.9,56.5,43.7,59.6,39.9,59.6z M-1.9,3.3
	c-2.8,0-5,2.2-5,5v44.3c0,2.8,2.2,5,5,5h41.8c2.8,0,5-2.2,5-5V8.3c0-2.8-2.2-5-5-5H-1.9z"/>
<path d="M37.8,39.1H0.2c-2.2,0-4-1.8-4-4v-17c0-2.2,1.8-4,4-4h37.5c2.2,0,4,1.8,4,4v17C41.8,37.3,40,39.1,37.8,39.1z M0.2,16.1
	c-1.1,0-2,0.9-2,2v17c0,1.1,0.9,2,2,2h37.5c1.1,0,2-0.9,2-2v-17c0-1.1-0.9-2-2-2H0.2z"/>
<path d="M-6.9,31.4h-2.8c-1.7,0-3-1.3-3-3v-8.8c0-1.7,1.3-3,3-3h2.8V31.4z M-9.7,18.6c-0.6,0-1,0.4-1,1v8.8c0,0.6,0.4,1,1,1h0.8
	V18.6H-9.7z"/>
<path d="M47.7,31.4h-2.8V16.6h2.8c1.7,0,3,1.3,3,3v8.8C50.7,30.1,49.4,31.4,47.7,31.4z M46.9,29.4h0.8c0.6,0,1-0.4,1-1v-8.8
	c0-0.6-0.4-1-1-1h-0.8V29.4z"/>
<path d="M2.1,54.5c-3.2,0-5.8-2.6-5.8-5.8s2.6-5.8,5.8-5.8c3.2,0,5.8,2.6,5.8,5.8S5.3,54.5,2.1,54.5z M2.1,44.8
	c-2.1,0-3.8,1.7-3.8,3.8s1.7,3.8,3.8,3.8c2.1,0,3.8-1.7,3.8-3.8S4.2,44.8,2.1,44.8z"/>
<path d="M35.9,54.5c-3.2,0-5.8-2.6-5.8-5.8s2.6-5.8,5.8-5.8s5.8,2.6,5.8,5.8S39.1,54.5,35.9,54.5z M35.9,44.8
	c-2.1,0-3.8,1.7-3.8,3.8s1.7,3.8,3.8,3.8c2.1,0,3.8-1.7,3.8-3.8S38,44.8,35.9,44.8z"/>
<path d="M1.6,64.7h-6.2c-1.7,0-3-1.3-3-3v-5.3h2v5.3c0,0.6,0.4,1,1,1h6.2c0.6,0,1-0.4,1-1l0-3.1l2,0l0,3.1
	C4.6,63.4,3.3,64.7,1.6,64.7z"/>
<path d="M42.6,64.7h-6.2c-1.7,0-3-1.3-3-3l0-3.1l2,0l0,3.1c0,0.6,0.4,1,1,1h6.2c0.6,0,1-0.4,1-1v-5.3h2v5.3
	C45.6,63.4,44.2,64.7,42.6,64.7z"/>
</svg>
