<?xml version="1.0" encoding="utf-8"?>
<!-- Generator: Adobe Illustrator 19.0.0, SVG Export Plug-In . SVG Version: 6.00 Build 0)  -->
<svg version="1.1" id="Layer_1" xmlns="http://www.w3.org/2000/svg" xmlns:xlink="http://www.w3.org/1999/xlink" x="0px" y="0px"
	 viewBox="447.3 -6.5 65.5 73.1" style="enable-background:new 447.3 -6.5 65.5 73.1;" xml:space="preserve">
<g>
	<path d="M492.9,56.7h-31.5c-0.3,0-0.5-0.1-0.7-0.3c-0.1-0.1-0.1-0.2-0.2-0.3c-4.3-7.6-7.1-15.9-8.2-24.6l-1.1-8.6
		c0-0.3,0.1-0.6,0.2-0.8s0.5-0.3,0.8-0.3h50c0.3,0,0.6,0.1,0.8,0.3c0.2,0.2,0.3,0.5,0.2,0.8l-1.1,8.6c-1.1,8.7-3.9,17-8.2,24.6
		C493.7,56.4,493.3,56.7,492.9,56.7z M462,54.7h30.4c4.1-7.3,6.6-15.2,7.7-23.5l1-7.5h-47.8l1,7.5C455.3,39.5,457.9,47.3,462,54.7z"
		/>
	<path d="M501.2,29h-48.1c-0.6,0-1-0.4-1-1s0.4-1,1-1h48.1c0.6,0,1,0.4,1,1S501.8,29,501.2,29z"/>
	<path d="M497.9,63h-41.4c-3.4,0-6.1-3.1-6.1-6.9v-0.5c0-0.6,0.4-1,1-1h51.5c0.6,0,1,0.4,1,1v0.5C503.9,59.9,501.2,63,497.9,63z
		 M452.4,56.7c0.2,2.4,2,4.3,4.1,4.3h41.4c2.1,0,3.8-1.9,4.1-4.3H452.4z"/>
	<g>
		<path d="M475,20.8c-0.5,0-0.9-0.4-1-0.9c-0.1-0.5,0.3-1,0.9-1.1c0.5-0.1,0.9-0.3,1.2-0.7c0.4-0.5,0.5-1.2,0.4-1.9
			c-0.2-1.4-1.4-2.5-2.6-3.5l-0.4-0.3c-1.1-0.9-2.6-2.1-2.4-4c0.1-1.8,1.5-3.4,3.3-3.6c0.5-0.1,1.1,0.3,1.1,0.9
			c0.1,0.5-0.3,1.1-0.9,1.1c-0.8,0.1-1.5,0.9-1.5,1.7c-0.1,0.9,0.6,1.5,1.7,2.3l0.4,0.3c1.5,1.2,3,2.7,3.3,4.8
			c0.2,1.2-0.1,2.5-0.8,3.4c-0.6,0.8-1.5,1.3-2.5,1.4C475.1,20.8,475,20.8,475,20.8z"/>
		<path d="M479.8,13c-0.5,0-0.9-0.4-1-0.9c-0.1-0.5,0.3-1,0.9-1.1c0.5-0.1,0.9-0.3,1.2-0.7c0.4-0.5,0.5-1.2,0.4-1.9
			c-0.2-1.4-1.4-2.5-2.6-3.5l-0.4-0.3c-1.1-0.9-2.6-2.1-2.4-4c0.1-1.8,1.5-3.4,3.3-3.6c0.5-0.1,1.1,0.3,1.1,0.9
			c0.1,0.5-0.3,1.1-0.9,1.1c-0.8,0.1-1.5,0.9-1.5,1.7c-0.1,0.9,0.6,1.5,1.7,2.3l0.4,0.3c1.5,1.2,3,2.7,3.3,4.8
			c0.2,1.2-0.1,2.5-0.8,3.4c-0.6,0.8-1.5,1.3-2.5,1.4C479.9,13,479.8,13,479.8,13z"/>
	</g>
	<path d="M497.7,46.9c-0.3,0-0.7-0.2-0.8-0.5c-0.3-0.5-0.2-1.1,0.3-1.4c0.1-0.1,8.9-5.7,10.1-10.5c0.5-2.1,0.5-3.6-0.2-4.7
		c-0.8-1.3-2.6-2.2-5.5-2.8c-0.5-0.1-0.9-0.6-0.8-1.2s0.6-0.9,1.2-0.8c3.5,0.7,5.7,1.9,6.8,3.7c1,1.6,1.1,3.6,0.5,6.3
		c-1.4,5.5-10.6,11.4-11,11.6C498.1,46.9,497.9,46.9,497.7,46.9z"/>
</g>
</svg>
