<?xml version="1.0" encoding="utf-8"?>
<!-- Generator: Adobe Illustrator 19.0.0, SVG Export Plug-In . SVG Version: 6.00 Build 0)  -->
<svg version="1.1" id="Слой_1" xmlns="http://www.w3.org/2000/svg" xmlns:xlink="http://www.w3.org/1999/xlink" x="0px" y="0px"
	 viewBox="0 0 125 125" style="enable-background:new 0 0 125 125;" xml:space="preserve">
<circle id="XMLID_34_" class="st0" style="fill:#FFEB7B;" cx="52.8" cy="73.5" r="50.5"/>
<path id="XMLID_18_" class="st1" d="M52.7,125c-13.2,0-26.3-5-36.3-15c-0.6-0.6-0.6-1.6,0-2.2c0.6-0.6,1.6-0.6,2.2,0
	c18.9,18.9,49.5,18.9,68.4,0C96,98.7,101,86.5,101,73.6s-5-25.1-14.2-34.2c-0.6-0.6-0.6-1.6,0-2.2c0.6-0.6,1.6-0.6,2.2,0
	c9.7,9.7,15.1,22.6,15.1,36.3c0,13.7-5.3,26.6-15.1,36.3C79,120,65.9,125,52.7,125z"/>
<path id="XMLID_15_" class="st1" d="M73.5,98.5H6.4c-3.6,0-6.5-2.9-6.5-6.5V18c0-1.1,0.1-4.4,24-9.2c0.4-0.1,0.8-0.5,0.8-0.9V5.6
	c0-1.9,1.6-3.5,3.5-3.5h22.6c1.9,0,3.5,1.6,3.5,3.5v2.3c0,0.4,0.4,0.8,0.7,0.9c0.1,0,0.1,0,0.2,0l21.9,7c0,0,0.1,0,0.1,0
	c1.6,0.6,2.8,2.4,2.8,4.1v72C80,95.6,77.1,98.5,73.5,98.5z M2.9,18.3V92c0,1.9,1.6,3.5,3.5,3.5h67.2c1.9,0,3.5-1.6,3.5-3.5V20
	c0-0.5-0.4-1.1-0.9-1.3l-21.8-7c-1.7-0.4-3.1-2.1-3.1-3.8V5.6c0-0.3-0.2-0.5-0.5-0.5H28.1c-0.3,0-0.5,0.2-0.5,0.5v2.3
	c0,1.8-1.4,3.5-3.2,3.9C15.1,13.7,4.4,16.6,2.9,18.3z"/>
<path id="XMLID_9_" class="st1" d="M78.5,105H1.4c-0.8,0-1.5-0.7-1.5-1.5s0.7-1.5,1.5-1.5h77.2c0.8,0,1.5,0.7,1.5,1.5
	S79.4,105,78.5,105z"/>
<path id="XMLID_10_" class="st1" d="M46.8,18.1H32.6c-0.8,0-1.5-0.7-1.5-1.5s0.7-1.5,1.5-1.5h14.2c0.8,0,1.5,0.7,1.5,1.5
	S47.6,18.1,46.8,18.1z"/>
<path id="XMLID_11_" class="st1" d="M70.9,98.5H9.8v-68c0-3.6,2.9-6.5,6.5-6.5h48.1c3.6,0,6.5,2.9,6.5,6.5V98.5z M12.8,95.5h55.1
	v-65c0-1.9-1.6-3.5-3.5-3.5H16.3c-1.9,0-3.5,1.6-3.5,3.5V95.5z"/>
<path id="XMLID_8_" class="st1" d="M40.3,98.5c-0.8,0-1.5-0.7-1.5-1.5V25.5c0-0.8,0.7-1.5,1.5-1.5s1.5,0.7,1.5,1.5V97
	C41.8,97.8,41.1,98.5,40.3,98.5z"/>
<path id="XMLID_6_" class="st1" d="M31.3,60.4c-0.4,0-0.8-0.1-1.1-0.4l-14-14c-0.6-0.6-0.6-1.5,0-2.1s1.5-0.6,2.1,0l14,14
	c0.6,0.6,0.6,1.5,0,2.1C32.1,60.3,31.7,60.4,31.3,60.4z"/>
<path id="XMLID_5_" class="st1" d="M61.3,76.4c-0.4,0-0.8-0.1-1.1-0.4l-14-14c-0.6-0.6-0.6-1.5,0-2.1s1.5-0.6,2.1,0l14,14
	c0.6,0.6,0.6,1.5,0,2.1C62.1,76.3,61.7,76.4,61.3,76.4z"/>
<path id="XMLID_4_" class="st1" d="M60.3,60.4c-0.4,0-0.8-0.1-1.1-0.4l-14-14c-0.6-0.6-0.6-1.5,0-2.1s1.5-0.6,2.1,0l14,14
	c0.6,0.6,0.6,1.5,0,2.1C61.1,60.3,60.7,60.4,60.3,60.4z"/>
<path id="XMLID_3_" class="st1" d="M31.3,75.4c-0.4,0-0.8-0.1-1.1-0.4l-14-14c-0.6-0.6-0.6-1.5,0-2.1s1.5-0.6,2.1,0l14,14
	c0.6,0.6,0.6,1.5,0,2.1C32.1,75.3,31.7,75.4,31.3,75.4z"/>
</svg>
