<?xml version="1.0" encoding="utf-8"?>
<!-- Generator: Adobe Illustrator 19.0.0, SVG Export Plug-In . SVG Version: 6.00 Build 0)  -->
<svg version="1.1" id="Слой_1" xmlns="http://www.w3.org/2000/svg" xmlns:xlink="http://www.w3.org/1999/xlink" x="0px" y="0px"
	 viewBox="0 0 125 125" style="enable-background:new 0 0 125 125;" xml:space="preserve">

<circle id="XMLID_34_" style="fill:#FFEB7B;" class="st0" cx="67.8" cy="73.5" r="50.5"/>
<path id="XMLID_22_" class="st1" d="M67.7,125c-13.2,0-26.3-5-36.3-15c-0.6-0.6-0.6-1.6,0-2.2c0.6-0.6,1.6-0.6,2.2,0
	c18.9,18.9,49.5,18.9,68.4,0C111,98.7,116,86.5,116,73.6s-5-25.1-14.2-34.2c-0.6-0.6-0.6-1.6,0-2.2c0.6-0.6,1.6-0.6,2.2,0
	c9.7,9.7,15.1,22.6,15.1,36.3c0,13.7-5.3,26.6-15.1,36.3C94,120,80.8,125,67.7,125z"/>
<path id="XMLID_5_" class="st1" d="M36.8,104.5H7.1c-3.9,0-7.1-3.2-7.1-7.1V9.9C0,6,3.2,2.8,7.1,2.8h29.7c3.9,0,7.1,3.2,7.1,7.1
	v87.5C43.9,101.3,40.7,104.5,36.8,104.5z M7.1,5.8C4.9,5.8,3,7.7,3,9.9v87.5c0,2.3,1.8,4.1,4.1,4.1h29.7c2.3,0,4.1-1.8,4.1-4.1V9.9
	c0-2.3-1.8-4.1-4.1-4.1H7.1z"/>
<path id="XMLID_6_" class="st1" d="M11.5,97.8c-0.8,0-1.5-0.7-1.5-1.5V11.5c0-0.8,0.7-1.5,1.5-1.5s1.5,0.7,1.5,1.5v84.8
	C13,97.2,12.4,97.8,11.5,97.8z"/>
<path id="XMLID_7_" class="st1" d="M21.5,97.8c-0.8,0-1.5-0.7-1.5-1.5V11.5c0-0.8,0.7-1.5,1.5-1.5s1.5,0.7,1.5,1.5v84.8
	C23,97.2,22.4,97.8,21.5,97.8z"/>
<path id="XMLID_9_" class="st1" d="M31.5,97.8c-0.8,0-1.5-0.7-1.5-1.5V11.5c0-0.8,0.7-1.5,1.5-1.5s1.5,0.7,1.5,1.5v84.8
	C33,97.2,32.4,97.8,31.5,97.8z"/>
<path id="XMLID_10_" class="st1" d="M75.9,33.7c-0.8,0-1.5-0.7-1.5-1.5l0-1.3c0-7,0-16.7-3.3-20c-0.8-0.8-1.7-1.2-2.9-1.2
	c-3.4,0-6.8,5.2-9.8,9.9c-3.1,4.8-5.8,8.9-9.2,8.9c-4.9,0-8.4-3.7-8.4-7.1c0-0.8,0.7-1.5,1.5-1.5s1.5,0.7,1.5,1.5
	c0,1.4,1.9,4.1,5.4,4.1c1.8,0,4.5-4.2,6.6-7.5c3.6-5.5,7.3-11.2,12.3-11.2c2,0,3.7,0.7,5,2c4.2,4.2,4.2,13.7,4.1,22.1l0,1.3
	C77.4,33,76.7,33.7,75.9,33.7z"/>
<path id="XMLID_8_" class="st1" d="M78.8,48.3c-0.8,0-1.5-0.7-1.5-1.5V35.7c0-1.1-0.9-2-2-2s-2,0.9-2,2v11.1c0,0.8-0.7,1.5-1.5,1.5
	s-1.5-0.7-1.5-1.5V35.7c0-2.8,2.2-5,5-5s5,2.2,5,5v11.1C80.3,47.6,79.7,48.3,78.8,48.3z"/>
<path id="XMLID_12_" class="st1" d="M87.9,83.2c-0.4,0-0.9-0.2-1.2-0.6C86.2,82,86.3,81,87,80.5c4.4-3.5,7-8.7,7-14.3
	c0-10-8.1-18.1-18.1-18.1s-18.1,8.1-18.1,18.1c0,5.5,2.5,10.7,6.8,14.1c0.6,0.5,0.7,1.5,0.2,2.1c-0.5,0.6-1.5,0.7-2.1,0.2
	c-5-4-7.9-10-7.9-16.5c0-11.6,9.5-21.1,21.1-21.1S97,54.6,97,66.3c0,6.5-3,12.6-8.1,16.6C88.6,83.1,88.2,83.2,87.9,83.2z"/>
<path id="XMLID_13_" class="st1" d="M92.8,102.3H59.5c-3,0-5.5-2.5-5.5-5.5V86.1c0-3,2.5-5.5,5.5-5.5H64c0.8,0,1.5,0.7,1.5,1.5
	s-0.7,1.5-1.5,1.5h-4.5c-1.4,0-2.5,1.1-2.5,2.5v10.6c0,1.4,1.1,2.5,2.5,2.5h33.4c1.4,0,2.5-1.1,2.5-2.5V86.1c0-1.4-1.1-2.5-2.5-2.5
	H88c-0.8,0-1.5-0.7-1.5-1.5s0.7-1.5,1.5-1.5h4.8c3,0,5.5,2.5,5.5,5.5v10.6C98.3,99.8,95.9,102.3,92.8,102.3z"/>
<path id="XMLID_11_" class="st1" d="M67.9,107.4h-4.1c-1.7,0-3.2-1.4-3.2-3.2v-3.5c0-0.8,0.7-1.5,1.5-1.5c0.8,0,1.5,0.7,1.5,1.5v3.5
	c0,0.1,0.1,0.2,0.2,0.2h4.1c0.1,0,0.2-0.1,0.2-0.2v-3.5c0-0.8,0.7-1.5,1.5-1.5s1.5,0.7,1.5,1.5v3.5C71.1,106,69.7,107.4,67.9,107.4z
	"/>
<path id="XMLID_15_" class="st1" d="M89,107.4H85c-1.7,0-3.2-1.4-3.2-3.2v-3.5c0-0.8,0.7-1.5,1.5-1.5s1.5,0.7,1.5,1.5v3.5
	c0,0.1,0.1,0.2,0.2,0.2H89c0.1,0,0.2-0.1,0.2-0.2v-3.5c0-0.8,0.7-1.5,1.5-1.5s1.5,0.7,1.5,1.5v3.5C92.2,106,90.8,107.4,89,107.4z"/>
<path id="XMLID_16_" class="st1" d="M75.5,80c-7.6,0-13.7-6.1-13.7-13.7c0-7.6,6.1-13.7,13.7-13.7c7.6,0,13.7,6.1,13.7,13.7
	C89.2,73.9,83.1,80,75.5,80z M75.5,55.6c-5.9,0-10.7,4.8-10.7,10.7c0,5.9,4.8,10.7,10.7,10.7c5.9,0,10.7-4.8,10.7-10.7
	C86.2,60.4,81.4,55.6,75.5,55.6z"/>
<path id="XMLID_4_" class="st1" d="M86.4,73.1H64.5c-0.8,0-1.5-0.7-1.5-1.5s0.7-1.5,1.5-1.5h21.9c0.8,0,1.5,0.7,1.5,1.5
	S87.2,73.1,86.4,73.1z"/>
<path id="XMLID_3_" class="st1" d="M74.9,73.1c-0.2,0-0.4,0-0.6-0.1c-0.8-0.3-1.1-1.2-0.8-2l4.7-11.2c0.3-0.8,1.2-1.1,2-0.8
	c0.8,0.3,1.1,1.2,0.8,2l-4.7,11.1C76.1,72.7,75.5,73.1,74.9,73.1z"/>
</svg>
