<?xml version="1.0" encoding="utf-8"?>
<!-- Generator: Adobe Illustrator 19.0.0, SVG Export Plug-In . SVG Version: 6.00 Build 0)  -->
<svg version="1.1" id="Слой_1" xmlns="http://www.w3.org/2000/svg" xmlns:xlink="http://www.w3.org/1999/xlink" x="0px" y="0px"
	 viewBox="0 0 125 125" style="enable-background:new 0 0 125 125;" xml:space="preserve">

<circle id="XMLID_34_" style="fill:#FFEB7B;" class="st0" cx="60.8" cy="73.5" r="50.5"/>
<path id="XMLID_22_" class="st1" d="M60.7,125c-13.2,0-26.3-5-36.3-15c-0.6-0.6-0.6-1.6,0-2.2c0.6-0.6,1.6-0.6,2.2,0
	c18.9,18.9,49.5,18.9,68.4,0C104,98.7,109,86.5,109,73.6s-5-25.1-14.2-34.2c-0.6-0.6-0.6-1.6,0-2.2c0.6-0.6,1.6-0.6,2.2,0
	c9.7,9.7,15.1,22.6,15.1,36.3c0,13.7-5.3,26.6-15.1,36.3C87,120,73.8,125,60.7,125z"/>
<path id="XMLID_14_" class="st1" d="M43.4,107.8c-6.9,0-18.1-8.5-26.3-16.5C8.9,83.3,0,72.2,0,65.1V19.6C0,15.9,2.9,12,8.2,12
	c0.4,0,0.9,0,1.5,0c5.8,0.1,21.2,0.4,32.9-7.9c0.5-0.3,1.1-0.4,1.7,0c14.2,8.9,28.3,8.2,33.7,8c0.6,0,1.1,0,1.5,0
	c4.1,0,7.5,3.5,7.5,7.7v45.5C86.9,77.5,56,107.8,43.4,107.8z M8.2,15C4.4,15,3,17.8,3,19.6v45.5c0,10.8,29.5,39.7,40.4,39.7
	s40.4-28.9,40.4-39.7V19.6c0-2.5-2.1-4.7-4.5-4.7c-0.3,0-0.8,0-1.3,0c-5,0.2-19.8,0.9-34.6-7.9c-12.4,8.3-28,8-33.9,7.9
	C9,15,8.6,15,8.2,15z"/>
<path id="XMLID_13_" class="st1" d="M43.4,94.4c-9.5,0-32.9-23-32.9-32.3V34.5c0-0.6,0.5-1.1,1.1-1.1s1.1,0.5,1.1,1.1V62
	c0,8.1,22.3,30,30.6,30s30.6-21.9,30.6-30V27.6c0-1.9-1.6-3.5-3.4-3.5c-0.2,0-0.6,0-1,0c-3.8,0.2-15,0.7-26.2-6
	c-4.9,3.3-11.1,5.2-18.4,5.8c-0.6,0-1.2-0.4-1.2-1c-0.1-0.6,0.4-1.2,1-1.2c7.2-0.6,13.3-2.5,17.9-5.8c0.4-0.3,0.9-0.3,1.3,0
	c10.7,6.7,21.5,6.2,25.5,6.1c0.5,0,0.8,0,1.1,0c3.1,0,5.7,2.7,5.7,5.8V62C76.3,71.4,53,94.4,43.4,94.4z"/>
<path id="XMLID_17_" class="st1" d="M50.8,75.1h-15c-4.2,0-7.6-3.4-7.6-7.6V57.2c0-4.2,3.4-7.6,7.6-7.6h15c4.2,0,7.6,3.4,7.6,7.6
	v10.4C58.4,71.7,55,75.1,50.8,75.1z M35.8,51.8c-2.9,0-5.3,2.4-5.3,5.3v10.4c0,2.9,2.4,5.3,5.3,5.3h15c2.9,0,5.3-2.4,5.3-5.3V57.2
	c0-2.9-2.4-5.3-5.3-5.3H35.8z"/>
<path id="XMLID_16_" class="st1" d="M53.3,51.8c-0.6,0-1.1-0.5-1.1-1.1V38.5c0-4.9-4-8.8-8.8-8.8s-8.8,4-8.8,8.8
	c0,0.6-0.5,1.1-1.1,1.1s-1.1-0.5-1.1-1.1c0-6.1,5-11.1,11.1-11.1s11.1,5,11.1,11.1v12.2C54.4,51.3,53.9,51.8,53.3,51.8z"/>
<path id="XMLID_4_" class="st1" d="M43.9,64c-2.7,0-4.8-2.2-4.8-4.8s2.2-4.8,4.8-4.8s4.8,2.2,4.8,4.8S46.5,64,43.9,64z M43.9,56.6
	c-1.4,0-2.6,1.2-2.6,2.6s1.2,2.6,2.6,2.6s2.6-1.2,2.6-2.6S45.3,56.6,43.9,56.6z"/>
<path id="XMLID_3_" class="st1" d="M43.9,68.6c-0.6,0-1.1-0.5-1.1-1.1v-4.6c0-0.6,0.5-1.1,1.1-1.1s1.1,0.5,1.1,1.1v4.6
	C45,68.1,44.5,68.6,43.9,68.6z"/>
</svg>
