<?xml version="1.0" encoding="utf-8"?>
<!-- Generator: Adobe Illustrator 19.0.0, SVG Export Plug-In . SVG Version: 6.00 Build 0)  -->
<svg version="1.1" id="Слой_1" xmlns="http://www.w3.org/2000/svg" xmlns:xlink="http://www.w3.org/1999/xlink" x="0px" y="0px"
	 viewBox="0 0 125 125" style="enable-background:new 0 0 125 125;" xml:space="preserve">

<circle id="XMLID_34_" style="fill:#FFEB7B;" class="st0" cx="70.4" cy="73.5" r="50.5"/>
<path id="XMLID_22_" class="st1" d="M70.3,125c-13.2,0-26.3-5-36.3-15c-0.6-0.6-0.6-1.6,0-2.2c0.6-0.6,1.6-0.6,2.2,0
	c18.9,18.9,49.5,18.9,68.4,0c9.1-9.1,14.2-21.3,14.2-34.2s-5-25.1-14.2-34.2c-0.6-0.6-0.6-1.6,0-2.2c0.6-0.6,1.6-0.6,2.2,0
	c9.7,9.7,15.1,22.6,15.1,36.3c0,13.7-5.3,26.6-15.1,36.3C96.6,120,83.4,125,70.3,125z"/>
<path id="XMLID_14_" class="st1" d="M6,99.5H5c-2.7,0-5-2.2-5-5v-22c0-2.7,2.2-5,5-5h2v3H5c-1.1,0-2,0.9-2,2v22c0,1.1,0.9,2,2,2h1
	V99.5z"/>
<rect id="XMLID_2_" x="17" y="96.5" class="st1" width="65.4" height="3"/>
<path id="XMLID_7_" class="st1" d="M94.8,99.5h-2.5v-3h2.5c1.1,0,2-0.9,2-2v-22c0-1.1-0.9-2-2-2h-2.5v-3h2.5c2.7,0,5,2.2,5,5v22
	C99.8,97.3,97.5,99.5,94.8,99.5z"/>
<rect id="XMLID_5_" x="16.9" y="67.6" class="st1" width="65.7" height="3"/>
<path id="XMLID_6_" class="st1" d="M13.9,104.9h-4c-2.7,0-4.9-2.2-4.9-4.9V67.9c0-2.7,2.2-4.9,4.9-4.9h4c2.7,0,4.9,2.2,4.9,4.9v32.2
	C18.8,102.7,16.6,104.9,13.9,104.9z M9.9,66c-1,0-1.9,0.8-1.9,1.9v32.2c0,1,0.8,1.9,1.9,1.9h4c1,0,1.9-0.8,1.9-1.9V67.9
	c0-1-0.8-1.9-1.9-1.9H9.9z"/>
<path id="XMLID_8_" class="st1" d="M89.4,104.9h-4c-2.7,0-4.9-2.2-4.9-4.9V67.9c0-2.7,2.2-4.9,4.9-4.9h4c2.7,0,4.9,2.2,4.9,4.9v32.2
	C94.3,102.7,92.1,104.9,89.4,104.9z M85.4,66c-1,0-1.9,0.8-1.9,1.9v32.2c0,1,0.8,1.9,1.9,1.9h4c1,0,1.9-0.8,1.9-1.9V67.9
	c0-1-0.8-1.9-1.9-1.9H85.4z"/>
<path id="XMLID_9_" class="st1" d="M77.6,69.1h-3v-5.9c0-1-0.8-1.9-1.9-1.9H25.5c-1,0-1.9,0.8-1.9,1.9v5.9h-3v-5.9
	c0-2.7,2.2-4.9,4.9-4.9h47.3c2.7,0,4.9,2.2,4.9,4.9V69.1z"/>
<path id="XMLID_10_" class="st1" d="M72.3,59.8h-3v-2.7c0-0.9-0.7-1.6-1.6-1.6H31.3c-0.9,0-1.6,0.7-1.6,1.6v2.7h-3v-2.7
	c0-2.5,2.1-4.6,4.6-4.6h36.4c2.5,0,4.6,2.1,4.6,4.6V59.8z"/>
<path id="XMLID_11_" class="st1" d="M60.4,54h-3v-9.2c0-1.2-0.9-2.1-2.1-2.1H43.9c-1.2,0-2.1,0.9-2.1,2.1V54h-3v-9.2
	c0-2.8,2.3-5.1,5.1-5.1h11.4c2.8,0,5.1,2.3,5.1,5.1V54z"/>
<rect id="XMLID_4_" x="51.6" y="25.1" class="st1" width="3" height="16.1"/>
<path id="XMLID_3_" class="st1" d="M54.6,13.2h-3V6.9c0-0.4-0.3-0.8-0.8-0.8h-3.5c-0.4,0-0.8,0.3-0.8,0.8V13h-3V6.9
	c0-2.1,1.7-3.8,3.8-3.8h3.5c2.1,0,3.8,1.7,3.8,3.8V13.2z"/>
<rect id="XMLID_23_" x="43.6" y="25.1" class="st1" width="3" height="16.1"/>
<path id="XMLID_21_" class="st1" d="M58.9,34c-1.8,0-2.1-1.8-2.3-2.9c-0.4-2.3-1-5.2-7.5-5.2c-7.2,0-7.8,3.8-8.1,5.8
	c-0.1,0.7-0.3,2.3-1.8,2.3h-11c-5.2,0-9.5-4.3-9.5-9.5V14.3c0-5.2,4.3-9.5,9.5-9.5h10.9v3H28.2c-3.6,0-6.5,2.9-6.5,6.5v10.2
	c0,3.6,2.9,6.5,6.5,6.5h9.9c0.4-2.3,1.6-8.1,11-8.1c8.9,0,9.9,5.2,10.4,7.6c0.1,0.3,0.1,0.8,0.2,0.9c-0.1-0.2-0.4-0.5-0.8-0.5V34z"
	/>
<path id="XMLID_19_" class="st1" d="M71.4,34H58.9v-3h12.5c3.6,0,6.5-2.9,6.5-6.5V14.3c0-3.6-2.9-6.5-6.5-6.5H58.9v-3h12.5
	c5.2,0,9.5,4.3,9.5,9.5v10.2C80.9,29.7,76.6,34,71.4,34z"/>
<path id="XMLID_24_" class="st1" d="M49.6,15.1c-8.3,0-10.5-5.3-11.3-7.3c-0.1-0.2-0.2-0.4-0.2-0.5c0.1,0.2,0.5,0.6,1.1,0.6v-3
	c1.2,0,1.6,1,1.9,1.8c0.8,1.9,2.2,5.5,8.5,5.5c6.2,0,7.1-3.5,7.6-5.3c0.2-0.7,0.5-2,1.8-2v3c0.7,0,1.1-0.4,1.2-0.8
	c0,0.1-0.1,0.3-0.1,0.4C59.6,9.4,58.1,15.1,49.6,15.1z"/>
</svg>
