<?xml version="1.0" encoding="utf-8"?>
<!-- Generator: Adobe Illustrator 19.0.0, SVG Export Plug-In . SVG Version: 6.00 Build 0)  -->
<svg version="1.1" id="Слой_1" xmlns="http://www.w3.org/2000/svg" xmlns:xlink="http://www.w3.org/1999/xlink" x="0px" y="0px"
	 viewBox="0 0 125 125" style="enable-background:new 0 0 125 125;" xml:space="preserve">

<circle id="XMLID_34_" style="fill:#FFEB7B;" class="st0" cx="50.8" cy="73.6" r="50.5"/>
<g id="XMLID_2_">
	<path id="XMLID_8_" class="st1" d="M54.3,6c9.4,0,17,7.6,17,17v45.6c0,9.4-7.6,17-17,17h-34c-9.4,0-17-7.6-17-17V23
		c0-9.4,7.6-17,17-17H54.3 M54.3,3h-34c-11,0-20,9-20,20v45.6c0,11,9,20,20,20h34c11,0,20-9,20-20V23C74.3,12,65.3,3,54.3,3L54.3,3z
		"/>
	<path id="XMLID_9_" class="st1" d="M37.6,24c7,0,12.8,5.7,12.8,12.8s-5.7,12.8-12.8,12.8s-12.8-5.7-12.8-12.8S30.6,24,37.6,24
		 M37.6,21c-8.7,0-15.8,7.1-15.8,15.8s7.1,15.8,15.8,15.8s15.8-7.1,15.8-15.8S46.3,21,37.6,21L37.6,21z"/>
	<path id="XMLID_10_" class="st1" d="M36,38.3c-0.4,0-0.9-0.2-1.1-0.5c-0.5-0.6-0.5-1.6,0.2-2.1l7.3-6.1c0.6-0.5,1.6-0.5,2.1,0.2
		c0.5,0.6,0.5,1.6-0.2,2.1L37,37.9C36.7,38.1,36.3,38.3,36,38.3z"/>
	<path id="XMLID_11_" class="st1" d="M10.5,29.6H1.9c-0.8,0-1.5-0.7-1.5-1.5s0.7-1.5,1.5-1.5h8.6c0.8,0,1.5,0.7,1.5,1.5
		S11.3,29.6,10.5,29.6z"/>
	<path id="XMLID_12_" class="st1" d="M10.5,37.6H1.9c-0.8,0-1.5-0.7-1.5-1.5s0.7-1.5,1.5-1.5h8.6c0.8,0,1.5,0.7,1.5,1.5
		S11.3,37.6,10.5,37.6z"/>
	<path id="XMLID_15_" class="st1" d="M10.5,45.6H1.9c-0.8,0-1.5-0.7-1.5-1.5s0.7-1.5,1.5-1.5h8.6c0.8,0,1.5,0.7,1.5,1.5
		S11.3,45.6,10.5,45.6z"/>
	<path id="XMLID_14_" class="st1" d="M72.5,29.6h-8.6c-0.8,0-1.5-0.7-1.5-1.5s0.7-1.5,1.5-1.5h8.6c0.8,0,1.5,0.7,1.5,1.5
		S73.3,29.6,72.5,29.6z"/>
	<path id="XMLID_13_" class="st1" d="M72.5,37.6h-8.6c-0.8,0-1.5-0.7-1.5-1.5s0.7-1.5,1.5-1.5h8.6c0.8,0,1.5,0.7,1.5,1.5
		S73.3,37.6,72.5,37.6z"/>
	<path id="XMLID_16_" class="st1" d="M72.5,45.6h-8.6c-0.8,0-1.5-0.7-1.5-1.5s0.7-1.5,1.5-1.5h8.6c0.8,0,1.5,0.7,1.5,1.5
		S73.3,45.6,72.5,45.6z"/>
	<path id="XMLID_19_" class="st1" d="M51.8,77.4H24.3c-0.8,0-1.5-0.7-1.5-1.5s0.7-1.5,1.5-1.5h27.5c0.8,0,1.5,0.7,1.5,1.5
		S52.6,77.4,51.8,77.4z"/>
	<path id="XMLID_18_" class="st1" d="M62.1,70.4c-3.4,0-5.4-2.5-7.2-4.7c-1.4-1.8-2.7-3.3-4.4-3.3c-2,0-3.7,1.8-5.5,3.7
		c-2,2.1-4.1,4.3-7,4.3c-3.1,0-5.3-2.4-7.3-4.5c-1.7-1.8-3.4-3.5-5.2-3.5c-1.8,0-3.3,1.6-5,3.4c-2.1,2.2-4.4,4.6-7.9,4.6
		c-3.4,0-5.7-2.6-7.6-4.7c-1.1-1.2-2.3-2.6-3.1-2.6c-0.8,0-1.5-0.7-1.5-1.5s0.7-1.5,1.5-1.5c2.1,0,3.7,1.7,5.4,3.6
		c1.6,1.8,3.4,3.7,5.4,3.7c2.2,0,3.9-1.8,5.7-3.7c2-2.1,4.1-4.3,7.2-4.3s5.3,2.4,7.3,4.5c1.7,1.8,3.4,3.5,5.2,3.5
		c1.6,0,3.2-1.6,4.8-3.4c2-2.2,4.4-4.6,7.7-4.6c3.2,0,5.1,2.4,6.8,4.5c1.5,1.9,2.9,3.5,4.8,3.5c2.2,0,4-2.3,5.5-4.3
		c1.5-1.9,2.9-3.7,4.8-3.7c0.8,0,1.5,0.7,1.5,1.5s-0.7,1.5-1.5,1.5c-0.5,0-1.7,1.6-2.5,2.6C68.1,67.4,65.8,70.4,62.1,70.4z"/>
	<path id="XMLID_17_" class="st1" d="M26.4,104.3h-5.1c-1.9,0-3.5-1.6-3.5-3.5v-3.3c0-0.1-0.1-0.3-0.1-0.4l-3.6-3.6
		c-0.7-0.7-1-1.5-1-2.5v-5h3v5c0,0.1,0.1,0.3,0.1,0.4l3.6,3.6c0.7,0.7,1,1.5,1,2.5v3.3c0,0.3,0.2,0.5,0.5,0.5h5.1
		c0.3,0,0.5-0.2,0.5-0.5v-3.4c0-0.9,0.4-1.8,1-2.5l3.5-3.5c0.1-0.1,0.1-0.2,0.1-0.4v-4h3v4c0,0.9-0.4,1.8-1,2.5L30.1,97
		c-0.1,0.1-0.1,0.2-0.1,0.4v3.4C29.9,102.7,28.4,104.3,26.4,104.3z"/>
	<path id="XMLID_4_" class="st1" d="M53,104.3h-5.1c-1.9,0-3.5-1.6-3.5-3.5v-3.4c0-0.1-0.1-0.3-0.1-0.4l-3.5-3.5
		c-0.7-0.7-1-1.5-1-2.5v-4h3v4c0,0.1,0.1,0.3,0.1,0.4l3.5,3.5c0.7,0.7,1,1.5,1,2.5v3.4c0,0.3,0.2,0.5,0.5,0.5H53
		c0.3,0,0.5-0.2,0.5-0.5v-3.3c0-0.9,0.4-1.8,1-2.5l3.6-3.6c0.1-0.1,0.1-0.2,0.1-0.4v-5h3v5c0,0.9-0.4,1.8-1,2.5l-3.6,3.6
		c-0.1,0.1-0.1,0.2-0.1,0.4v3.3C56.5,102.7,54.9,104.3,53,104.3z"/>
</g>
<path id="XMLID_7_" class="st1" d="M50.7,125.1c-13.2,0-26.3-5-36.3-15c-0.6-0.6-0.6-1.6,0-2.2c0.6-0.6,1.6-0.6,2.2,0
	c18.9,18.9,49.5,18.9,68.4,0C94,98.8,99,86.7,99,73.8s-5-25.1-14.2-34.2c-0.6-0.6-0.6-1.6,0-2.2c0.6-0.6,1.6-0.6,2.2,0
	c9.7,9.7,15.1,22.6,15.1,36.3c0,13.7-5.3,26.6-15.1,36.3C77,120.1,63.9,125.1,50.7,125.1z"/>
</svg>
