<?xml version="1.0" encoding="utf-8"?>
<!-- Generator: Adobe Illustrator 19.0.0, SVG Export Plug-In . SVG Version: 6.00 Build 0)  -->
<svg version="1.1" id="Слой_1" xmlns="http://www.w3.org/2000/svg" xmlns:xlink="http://www.w3.org/1999/xlink" x="0px" y="0px"
	 viewBox="0 0 125 125" style="enable-background:new 0 0 125 125;" xml:space="preserve">
<circle id="XMLID_34_" style="fill:#FFEB7B;" class="st0" cx="60.2" cy="73.5" r="50.5"/>
<path id="XMLID_22_" class="st1" d="M60.1,125c-13.2,0-26.3-5-36.3-15c-0.6-0.6-0.6-1.6,0-2.2c0.6-0.6,1.6-0.6,2.2,0
	c18.9,18.9,49.5,18.9,68.4,0c9.1-9.1,14.2-21.3,14.2-34.2s-5-25.1-14.2-34.2c-0.6-0.6-0.6-1.6,0-2.2c0.6-0.6,1.6-0.6,2.2,0
	c9.7,9.7,15.1,22.6,15.1,36.3c0,13.7-5.3,26.6-15.1,36.3C86.5,120,73.3,125,60.1,125z"/>
<path id="XMLID_5_" class="st1" d="M80.1,6.2c1.1,0,2,0.9,2,2v75.8c0,1.1-0.9,2-2,2H11c-1.1,0-2-0.9-2-2V8.2c0-1.1,0.9-2,2-2H80.1
	 M80.1,3.2H11c-2.8,0-5,2.3-5,5v75.8c0,2.8,2.3,5,5,5h69.2c2.8,0,5-2.3,5-5V8.2C85.1,5.5,82.9,3.2,80.1,3.2L80.1,3.2z"/>
<path id="XMLID_23_" class="st1" d="M80.1,89.1h-3V14.6c0-1.6-1.3-2.9-2.9-2.9H16.9c-1.6,0-2.9,1.3-2.9,2.9v74.4h-3V14.6
	c0-3.3,2.7-5.9,5.9-5.9h57.3c3.3,0,5.9,2.7,5.9,5.9V89.1z"/>
<rect id="XMLID_7_" x="44.2" y="10.2" class="st1" width="2.6" height="78.8"/>
<rect id="XMLID_8_" x="12.5" y="48.3" class="st1" width="67" height="2.6"/>
<path id="XMLID_9_" class="st1" d="M19.7,28c-0.4,0-0.8-0.1-1.1-0.4c-0.6-0.6-0.6-1.5,0-2.1l9.6-9.6c0.6-0.6,1.5-0.6,2.1,0
	c0.6,0.6,0.6,1.5,0,2.1l-9.6,9.6C20.5,27.8,20.1,28,19.7,28z"/>
<path id="XMLID_10_" class="st1" d="M19.9,37.4c-0.4,0-0.8-0.1-1.1-0.4c-0.6-0.6-0.6-1.5,0-2.1l9.4-9.4c0.6-0.6,1.5-0.6,2.1,0
	c0.6,0.6,0.6,1.5,0,2.1L21,36.9C20.7,37.2,20.3,37.4,19.9,37.4z"/>
<path id="XMLID_13_" class="st1" d="M33.4,24.5c-0.4,0-0.8-0.1-1.1-0.4c-0.6-0.6-0.6-1.5,0-2.1l5.1-5.1c0.6-0.6,1.5-0.6,2.1,0
	c0.6,0.6,0.6,1.5,0,2.1L34.5,24C34.2,24.3,33.8,24.5,33.4,24.5z"/>
<path id="XMLID_12_" class="st1" d="M61.9,83.4c-0.4,0-0.8-0.1-1.1-0.4c-0.6-0.6-0.6-1.5,0-2.1l9.6-9.6c0.6-0.6,1.5-0.6,2.1,0
	s0.6,1.5,0,2.1l-9.6,9.6C62.6,83.2,62.3,83.4,61.9,83.4z"/>
<path id="XMLID_11_" class="st1" d="M61.9,73.8c-0.4,0-0.8-0.1-1.1-0.4c-0.6-0.6-0.6-1.5,0-2.1l9.4-9.4c0.6-0.6,1.5-0.6,2.1,0
	c0.6,0.6,0.6,1.5,0,2.1l-9.4,9.4C62.6,73.6,62.3,73.8,61.9,73.8z"/>
<path id="XMLID_16_" class="st1" d="M52.7,82.4c-0.4,0-0.8-0.1-1.1-0.4c-0.6-0.6-0.6-1.5,0-2.1l5.1-5.1c0.6-0.6,1.5-0.6,2.1,0
	s0.6,1.5,0,2.1l-5.1,5.1C53.5,82.2,53.1,82.4,52.7,82.4z"/>
<path id="XMLID_14_" class="st1" d="M84.5,98h-79c-3,0-5.5-2.5-5.5-5.5V85c0-0.8,0.7-1.5,1.5-1.5S3,84.1,3,85v7.5
	C3,93.9,4.1,95,5.5,95h79c1.4,0,2.5-1.1,2.5-2.5V85c0-0.8,0.7-1.5,1.5-1.5S90,84.1,90,85v7.5C90,95.5,87.5,98,84.5,98z"/>
<path id="XMLID_4_" class="st1" d="M16.9,105.2H11c-1.9,0-3.5-1.6-3.5-3.5v-5.3C7.5,95.6,8.2,95,9,95s1.5,0.7,1.5,1.5v5.3
	c0,0.3,0.2,0.5,0.5,0.5h5.8c0.3,0,0.5-0.2,0.5-0.5v-5.3c0-0.8,0.7-1.5,1.5-1.5s1.5,0.7,1.5,1.5v5.3
	C20.4,103.7,18.8,105.2,16.9,105.2z"/>
<path id="XMLID_3_" class="st1" d="M78.9,105.2H73c-1.9,0-3.5-1.6-3.5-3.5v-5.3c0-0.8,0.7-1.5,1.5-1.5s1.5,0.7,1.5,1.5v5.3
	c0,0.3,0.2,0.5,0.5,0.5h5.8c0.3,0,0.5-0.2,0.5-0.5v-5.3c0-0.8,0.7-1.5,1.5-1.5s1.5,0.7,1.5,1.5v5.3
	C82.4,103.7,80.8,105.2,78.9,105.2z"/>
</svg>
