<?xml version="1.0" encoding="utf-8"?>
<!-- Generator: Adobe Illustrator 19.0.0, SVG Export Plug-In . SVG Version: 6.00 Build 0)  -->
<svg version="1.1" id="Слой_1" xmlns="http://www.w3.org/2000/svg" xmlns:xlink="http://www.w3.org/1999/xlink" x="0px" y="0px"
	 viewBox="0 0 125 125" style="enable-background:new 0 0 125 125;" xml:space="preserve">
<circle id="XMLID_34_" style="fill:#FFEB7B;" class="st0" cx="66.6" cy="73.5" r="50.5"/>
<path id="XMLID_22_" class="st1" d="M66.5,125c-13.2,0-26.3-5-36.3-15c-0.6-0.6-0.6-1.6,0-2.2c0.6-0.6,1.6-0.6,2.2,0
	c18.9,18.9,49.5,18.9,68.4,0c9.1-9.1,14.2-21.3,14.2-34.2s-5-25.1-14.2-34.2c-0.6-0.6-0.6-1.6,0-2.2c0.6-0.6,1.6-0.6,2.2,0
	c9.7,9.7,15.1,22.6,15.1,36.3c0,13.7-5.3,26.6-15.1,36.3C92.8,120,79.6,125,66.5,125z"/>
<path id="XMLID_7_" class="st1" d="M106.9,59.5H-0.2l33.3-19.3h41.7L106.9,59.5z M10.9,56.5h85.2L73.9,43.2h-40L10.9,56.5z"/>
<path id="XMLID_6_" class="st1" d="M72,41.7h-3v-4.5c0-0.3-0.2-0.5-0.5-0.5H38.8c-0.3,0-0.5,0.2-0.5,0.5v4.5h-3v-4.5
	c0-1.9,1.6-3.5,3.5-3.5h29.7c1.9,0,3.5,1.6,3.5,3.5V41.7z"/>
<path id="XMLID_8_" class="st1" d="M65,36.7H41.3v-9.8H65V36.7z M44.3,33.7H62v-3.8H44.3V33.7z"/>
<path id="XMLID_10_" class="st1" d="M65.3,29.8H41.2c-1.9,0-3.5-1.6-3.5-3.5v-3.2c0-1.9,1.6-3.5,3.5-3.5h24.2c1.9,0,3.5,1.6,3.5,3.5
	v3.2C68.8,28.3,67.3,29.8,65.3,29.8z M41.2,22.7c-0.3,0-0.5,0.2-0.5,0.5v3.2c0,0.3,0.2,0.5,0.5,0.5h24.2c0.3,0,0.5-0.2,0.5-0.5v-3.2
	c0-0.3-0.2-0.5-0.5-0.5H41.2z"/>
<path id="XMLID_9_" class="st1" d="M60.2,21.2h-3V16c0-0.3-0.2-0.5-0.5-0.5h-6.3c-0.3,0-0.5,0.2-0.5,0.5v5.2h-3V16
	c0-1.9,1.6-3.5,3.5-3.5h6.3c1.9,0,3.5,1.6,3.5,3.5V21.2z"/>
<path id="XMLID_12_" class="st1" d="M53.2,90.3c-0.8,0-1.5-0.7-1.5-1.5V58c0-0.8,0.7-1.5,1.5-1.5s1.5,0.7,1.5,1.5v30.8
	C54.7,89.7,54,90.3,53.2,90.3z"/>
<path id="XMLID_11_" class="st1" d="M57.1,91.2c-0.1,0-0.3,0-0.4,0c-0.8,0-1.5-0.7-1.4-1.6c0-0.8,0.7-1.5,1.6-1.4
	c1.1,0,1.9-0.2,2.3-0.6c0.1-0.1,0.4-0.4,0.4-1.1c0-0.6,0-2-6.4-2c-6.2,0-9.4-1.7-9.4-5.2c0-5.1,5.4-5.7,9.5-5.7
	c6.3,0,6.3-2.4,6.3-3.2c0-2.3-4-2.7-6.3-2.7c-3.5,0-5.6-0.6-6.9-1.8c-1.6-1.6-1.6-4-1.6-7.3l0-0.7c0-0.8,0.7-1.5,1.5-1.5
	s1.5,0.7,1.5,1.5l0,0.7c0,2.6,0,4.4,0.8,5.2c0.6,0.6,2.2,1,4.7,1c8.1,0,9.3,3.6,9.3,5.7c0,2.3-1.2,6.2-9.3,6.2
	c-6.5,0-6.5,1.9-6.5,2.7c0,1.9,4,2.2,6.4,2.2c3.1,0,9.4,0,9.4,5c0,1.7-0.7,2.7-1.3,3.3C60.2,90.7,58.8,91.2,57.1,91.2z"/>
<path id="XMLID_4_" class="st1" d="M53.2,15.5c-0.8,0-1.5-0.7-1.5-1.5V2c0-0.8,0.7-1.5,1.5-1.5s1.5,0.7,1.5,1.5v12
	C54.7,14.8,54,15.5,53.2,15.5z"/>
<path id="XMLID_3_" class="st1" d="M67.4,59.7l4.3,22.2c-0.2,10.1-8.4,18.2-18.5,18.2c-10.1,0-18.3-8.1-18.5-18.2l4.6-22.2H67.4
	 M69.9,56.6h-33l-5.2,25c0,11.9,9.7,21.6,21.6,21.6h0c11.9,0,21.6-9.7,21.6-21.6L69.9,56.6L69.9,56.6z"/>
</svg>
