<?xml version="1.0" encoding="utf-8"?>
<!-- Generator: Adobe Illustrator 19.0.0, SVG Export Plug-In . SVG Version: 6.00 Build 0)  -->
<svg version="1.1" id="Слой_1" xmlns="http://www.w3.org/2000/svg" xmlns:xlink="http://www.w3.org/1999/xlink" x="0px" y="0px"
	 viewBox="0 0 125 125" style="enable-background:new 0 0 125 125;" xml:space="preserve">
<circle id="XMLID_250_" style="fill:#FFEB7B;" class="st0" cx="61.5" cy="73.5" r="50.5"/>
<path id="XMLID_249_" class="st1" d="M61.4,125c-13.2,0-26.3-5-36.3-15c-0.6-0.6-0.6-1.6,0-2.2c0.6-0.6,1.6-0.6,2.2,0
	c18.9,18.9,49.5,18.9,68.4,0c9.1-9.1,14.2-21.3,14.2-34.2s-5-25.1-14.2-34.2c-0.6-0.6-0.6-1.6,0-2.2c0.6-0.6,1.6-0.6,2.2,0
	c9.7,9.7,15.1,22.6,15.1,36.3c0,13.7-5.3,26.6-15.1,36.3C87.8,120,74.6,125,61.4,125z"/>
<path id="XMLID_222_" class="st1" d="M69.7,79.2H37.6c-8.4,0-15.2-8.3-15.2-15.2l0-37.7h61.1v37.2C83.6,72.4,75.1,79.2,69.7,79.2z
	 M25.4,29.3l0,34.7c0,4.8,5.2,12.2,12.2,12.2h32.1c3.7,0,10.9-5.4,10.9-12.7V29.3H25.4z"/>
<path id="XMLID_229_" class="st1" d="M58.9,89.1h-10c-2.5,0-4.5-2-4.5-4.5v-8.4h19v8.4C63.4,87.1,61.4,89.1,58.9,89.1z M47.4,79.2
	v5.4c0,0.8,0.7,1.5,1.5,1.5h10c0.8,0,1.5-0.7,1.5-1.5v-5.4H47.4z"/>
<rect id="XMLID_232_" x="23.9" y="39.3" class="st1" width="58.1" height="3"/>
<polygon id="XMLID_235_" class="st1" points="49.5,53 45.9,53 45.9,56.7 49.5,56.7 49.5,53 "/>
<polygon id="XMLID_236_" class="st1" points="55.8,53 52.2,53 52.2,56.7 55.8,56.7 55.8,53 "/>
<polygon id="XMLID_237_" class="st1" points="61.9,53 58.3,53 58.3,56.7 61.9,56.7 61.9,53 "/>
<path id="XMLID_240_" class="st1" d="M41.4,29.3H30.4V6.5c0-3,2.5-5.5,5.5-5.5h0.1c3,0,5.5,2.5,5.5,5.5V29.3z M33.4,26.3h5.1V6.5
	c0-1.4-1.1-2.5-2.5-2.5h-0.1c-1.4,0-2.5,1.1-2.5,2.5V26.3z"/>
<path id="XMLID_243_" class="st1" d="M74.4,27.8h-3V6.5c0-1.4-1.1-2.5-2.5-2.5c-1.4,0-2.6,1.1-2.6,2.5v21.3h-3V6.5
	c0-3,2.5-5.5,5.5-5.5c3.1,0,5.6,2.5,5.6,5.5V27.8z"/>
<path id="XMLID_248_" class="st1" d="M37.5,105.5c-12.9,0-16.9-12.4-16.9-16.9c0-3.3-2.9-4.4-4.4-4.4H1.5c-0.8,0-1.5-0.7-1.5-1.5
	s0.7-1.5,1.5-1.5h14.8c3.1,0,7.4,2.3,7.4,7.4c0,3.7,3.3,13.9,13.9,13.9c11.7,0,14.9-3.2,14.9-14.9c0-0.8,0.7-1.5,1.5-1.5
	s1.5,0.7,1.5,1.5C55.4,101,50.9,105.5,37.5,105.5z"/>
</svg>
