<?xml version="1.0" encoding="utf-8"?>
<!-- Generator: Adobe Illustrator 19.0.0, SVG Export Plug-In . SVG Version: 6.00 Build 0)  -->
<svg version="1.1" id="Слой_1" xmlns="http://www.w3.org/2000/svg" xmlns:xlink="http://www.w3.org/1999/xlink" x="0px" y="0px"
	 viewBox="0 0 63 58.7" style="enable-background:new 0 0 63 58.7;" xml:space="preserve">
<style type="text/css">
	.st0{fill:#1D1D1B;}
</style>
<path id="XMLID_6_" class="st0" d="M31.5,58.7C16.9,58.7,5,46.8,5,32.2c0-8.4,3.8-16.1,10.5-21.1l1.2,1.6C10.5,17.3,7,24.5,7,32.2
	c0,13.5,11,24.5,24.5,24.5S56,45.7,56,32.2c0-7.6-3.4-14.6-9.4-19.3l1.2-1.6C54.3,16.4,58,24,58,32.2C58,46.8,46.1,58.7,31.5,58.7z"
	/>
<path id="XMLID_5_" class="st0" d="M6.5,39.9C2.9,39.9,0,37,0,33.4c0-3.6,2.9-6.5,6.5-6.5v2c-2.5,0-4.5,2-4.5,4.5s2,4.5,4.5,4.5
	V39.9z"/>
<path id="XMLID_11_" class="st0" d="M56.6,39.9v-2c2.5,0,4.5-2,4.5-4.5s-2-4.5-4.5-4.5v-2c3.6,0,6.5,2.9,6.5,6.5
	C63,37,60.1,39.9,56.6,39.9z"/>
<path id="XMLID_12_" class="st0" d="M25.5,29.7c-0.3,0-0.6-0.2-0.8-0.5c-1-1.5-2.6-2.3-4.3-2.3c-1.7,0-3.3,0.9-4.3,2.3
	c-0.3,0.5-0.9,0.6-1.4,0.3c-0.5-0.3-0.6-0.9-0.3-1.4c1.3-2,3.6-3.2,6-3.2c2.4,0,4.7,1.2,6,3.2c0.3,0.5,0.2,1.1-0.3,1.4
	C25.9,29.7,25.7,29.7,25.5,29.7z"/>
<path id="XMLID_14_" class="st0" d="M47.5,29.7c-0.3,0-0.6-0.2-0.8-0.5c-1-1.5-2.6-2.3-4.3-2.3c-1.7,0-3.3,0.9-4.3,2.3
	c-0.3,0.5-0.9,0.6-1.4,0.3c-0.5-0.3-0.6-0.9-0.3-1.4c1.3-2,3.6-3.2,6-3.2c2.4,0,4.7,1.2,6,3.2c0.3,0.5,0.2,1.1-0.3,1.4
	C47.9,29.6,47.7,29.7,47.5,29.7z"/>
<path id="XMLID_15_" class="st0" d="M31.5,48.7c-2.4,0-4.7-1.2-6-3.2c-0.3-0.5-0.2-1.1,0.3-1.4c0.5-0.3,1.1-0.2,1.4,0.3
	c1,1.5,2.6,2.3,4.3,2.3c1.7,0,3.4-0.9,4.3-2.3c0.3-0.5,0.9-0.6,1.4-0.3s0.6,0.9,0.3,1.4C36.2,47.5,33.9,48.7,31.5,48.7z"/>
<path id="XMLID_16_" class="st0" d="M32.3,18.9h-1.5c-1.6,0-3-1.3-3-3V8c0-1.6,1.3-3,3-3h1.5c1.6,0,3,1.3,3,3v7.9
	C35.3,17.6,34,18.9,32.3,18.9z M30.9,7.4c-0.3,0-0.6,0.3-0.6,0.6v7.9c0,0.3,0.3,0.6,0.6,0.6h1.5c0.3,0,0.6-0.3,0.6-0.6V8
	c0-0.3-0.3-0.6-0.6-0.6H30.9z"/>
<path id="XMLID_18_" class="st0" d="M26.7,10.3c-3.4,0-8-2.2-8.6-2.5l-0.1,0c-1.6-0.9-5.2-3.4-5-5.7c0-0.7,0.4-1.2,0.9-1.6
	c2.1-1.3,7.5,0.7,8.6,1.1c2.2,0.9,6.8,3.4,7.6,5.4c0.3,0.7,0.1,1.2,0,1.5l0,0c-0.3,0.7-1,1.2-1.8,1.5C27.9,10.2,27.3,10.3,26.7,10.3
	z M19.2,5.7c2.4,1.1,6.7,2.7,8.4,2.1c0.1,0,0.2-0.1,0.3-0.1c-0.6-0.9-3.4-2.8-6.1-3.9c-2.7-1-5.3-1.5-6.3-1.4
	C15.8,3.1,17.5,4.6,19.2,5.7z"/>
<path id="XMLID_19_" class="st0" d="M36.7,10.5c-0.6,0-1.2-0.1-1.7-0.2c-0.8-0.3-1.4-0.8-1.8-1.5l0,0c-0.2-0.3-0.3-0.9,0-1.5
	c0.8-2.1,5.4-4.6,7.6-5.4c1.1-0.4,6.5-2.4,8.6-1.1C50,1,50.3,1.5,50.3,2.2c0.2,2.3-3.4,4.8-5,5.7l-0.1,0C44.6,8.2,40,10.5,36.7,10.5
	z M35.5,7.8c0.1,0,0.1,0.1,0.3,0.1c1.7,0.6,6-1,8.4-2.1c1.8-1.1,3.4-2.5,3.8-3.3c-0.9-0.2-3.6,0.3-6.3,1.4C38.9,5,36.1,7,35.5,7.8z"
	/>
<path id="XMLID_31_" class="st0" d="M18.1,20c-2.4,0-3.9-0.5-4.5-1.5c-0.4-0.6-0.4-1.3-0.1-1.9l0.1-0.2c1.3-1.6,1.4-4.6,1.4-5.5
	c0-0.9-0.5-3.6-2-8.1c-0.2-0.6,0.1-1.3,0.8-1.5c0.6-0.2,1.3,0.1,1.5,0.8c0.6,2,2.1,6.8,2.1,8.9c0,1.6-0.2,4.4-1.5,6.4
	c0.4,0.1,1.4,0.3,3.4,0.2c4-0.2,8.2-2.4,8.9-3.2c0.4-0.5,1.2-0.6,1.7-0.2c0.5,0.4,0.6,1.2,0.2,1.7c-1.2,1.5-6,3.8-10.6,4.1
	C19,20,18.5,20,18.1,20z"/>
<path id="XMLID_32_" class="st0" d="M45.2,20c-0.4,0-0.8,0-1.3,0c-4.6-0.3-9.4-2.6-10.6-4.1c-0.4-0.5-0.3-1.3,0.2-1.7
	c0.5-0.4,1.3-0.3,1.7,0.2c0.7,0.8,4.8,3,8.9,3.2c1.9,0.1,2.9-0.1,3.4-0.2c-1.3-2-1.5-4.9-1.5-6.4c0-2.1,1.5-6.9,2.1-8.9
	c0.2-0.6,0.9-1,1.5-0.8c0.6,0.2,1,0.9,0.8,1.5c-1.5,4.6-2,7.2-2,8.1c0,0.9,0.1,3.9,1.4,5.5l0.1,0.2c0.3,0.6,0.3,1.3-0.1,1.9
	C49.1,19.5,47.6,20,45.2,20z"/>
</svg>
