<?xml version="1.0" encoding="utf-8"?>
<!-- Generator: Adobe Illustrator 19.0.0, SVG Export Plug-In . SVG Version: 6.00 Build 0)  -->
<svg version="1.1" id="Слой_1" xmlns="http://www.w3.org/2000/svg" xmlns:xlink="http://www.w3.org/1999/xlink" x="0px" y="0px"
	 viewBox="0 0 52.1 49.1" style="enable-background:new 0 0 52.1 49.1;" xml:space="preserve">
<circle id="XMLID_34_" style="fill:#FFEB7B;" class="st0" cx="27" cy="24" r="24"/>
<path id="XMLID_5_" class="st1" d="M27.7,18c0,0.5,0.4,0.9,0.9,0.9s0.9-0.4,0.9-0.9c0-6.5-5.3-11.8-11.8-11.8
	c-0.5,0-0.9,0.4-0.9,0.9s0.4,0.9,0.9,0.9C23.2,8,27.7,12.5,27.7,18z M16.9,11.9c0,0.5,0.4,0.9,0.9,0.9c2.8,0,5.1,2.2,5.1,5.1
	c0,0.5,0.4,0.9,0.9,0.9c0.6,0,0.9-0.4,0.9-0.9c0-3.8-3.1-6.8-6.8-6.8C17.2,11.1,16.9,11.4,16.9,11.9z M17.7,0.7
	c-0.5,0-0.9,0.4-0.9,0.9s0.4,0.9,0.9,0.9c8.5,0,15.4,7,15.4,15.4c0,0.5,0.4,0.9,0.9,0.9c0.6,0,0.9-0.4,0.9-0.9
	C34.9,8.5,27.3,0.7,17.7,0.7z M22.7,21.3c-0.1-0.1-0.4-0.2-0.6-0.2l0,0c-0.2,0-0.5,0.1-0.6,0.2l-1.9,1.9c-0.7,0.7-1.9,0.7-2.6,0
	l-4.4-4c-0.7-0.7-0.7-1.9,0-2.6l2.1-2.1c0.4-0.4,0.4-0.9,0-1.3L6,4.6C5.9,4.5,5.7,4.3,5.5,4.3C5.2,4.3,5,4.5,4.9,4.6
	C4.7,4.7,2,7.4,1.4,8.1c-1.7,1.7-1.9,5.1-0.7,8c2.6,6.5,11.2,14.4,18.4,18.7c0.6,0.4,2,0.7,3.4,0.7l0,0c1.3,0,3.2-0.2,4.8-1.7
	c1.5-1.3,3.3-3.2,3.4-3.3c0.4-0.4,0.4-0.9,0-1.2L22.7,21.3z M26.2,32.5c-1.2,1.1-2.6,1.2-3.7,1.2l0,0c-1.3,0-2.4-0.4-2.5-0.5
	C11.9,28.4,4.5,21,2.4,15.4c-0.9-2.5-0.6-5.2,0.2-6.1c0.5-0.5,1.9-1.9,2.8-2.8l7.3,7.3l-1.5,1.5c-1.4,1.4-1.4,3.7,0,5.1l4.4,4
	c1.3,1.3,3.7,1.3,5.1,0l1.3-1.3l6.8,6.8C28.2,30.7,27.1,31.8,26.2,32.5z"/>
<path id="XMLID_22_" class="st2" d="M27,49.1c-6.4,0-12.8-2.4-17.7-7.3c-0.4-0.4-0.4-1,0-1.4s1-0.4,1.4,0c9,9,23.6,9,32.6,0
	c4.4-4.4,6.8-10.1,6.8-16.3c0-6.2-2.4-11.9-6.8-16.3c-0.4-0.4-0.4-1,0-1.4s1-0.4,1.4,0c4.7,4.7,7.3,11,7.3,17.7
	c0,6.7-2.6,13-7.3,17.7C39.9,46.6,33.4,49.1,27,49.1z"/>
</svg>
