<?xml version="1.0" encoding="utf-8"?>
<!-- Generator: Adobe Illustrator 19.0.0, SVG Export Plug-In . SVG Version: 6.00 Build 0)  -->
<svg version="1.1" id="Слой_1" xmlns="http://www.w3.org/2000/svg" xmlns:xlink="http://www.w3.org/1999/xlink" x="0px" y="0px"
	 viewBox="32 -32 128 128" style="enable-background:new 32 -32 128 128;" xml:space="preserve">
<style type="text/css">
	.st0{fill:#020202;}
</style>
<g id="Layer_1">
</g>
<g id="refrigerator">
</g>
<g id="washer">
</g>
<g id="tv">
</g>
<g id="microwawe">
</g>
<g id="vacuum_cleaner">
</g>
<g id="Gift">
</g>
<g id="umbrella">
</g>
<g id="rocket">
</g>
<g id="basket">
</g>
<g id="shopping">
	<g>
		<g>
			<path class="st0" d="M124.1,87.1c-6.3,0-11.4-5.1-11.4-11.4s5.1-11.4,11.4-11.4c6.3,0,11.4,5.1,11.4,11.4S130.4,87.1,124.1,87.1z
				 M124.1,68.2c-4.1,0-7.4,3.3-7.4,7.4s3.3,7.4,7.4,7.4c4.1,0,7.4-3.3,7.4-7.4S128.2,68.2,124.1,68.2z"/>
		</g>
		<g>
			<path class="st0" d="M78.8,87.1c-6.3,0-11.4-5.1-11.4-11.4s5.1-11.4,11.4-11.4s11.4,5.1,11.4,11.4S85.1,87.1,78.8,87.1z
				 M78.8,68.2c-4.1,0-7.4,3.3-7.4,7.4s3.3,7.4,7.4,7.4s7.4-3.3,7.4-7.4S82.9,68.2,78.8,68.2z"/>
		</g>
		<g>
			<path class="st0" d="M128.6,59.1C128.6,59.1,128.6,59.1,128.6,59.1l-54.8,0c-4.6,0-8.5-3.3-9.4-7.7L54.4-2.6
				c-0.1-0.6,0-1.2,0.4-1.6s0.9-0.7,1.5-0.7H151c1.9,0,3.7,0.9,4.8,2.5c1.1,1.6,1.3,3.6,0.6,5.4L137.5,53
				C136.1,56.7,132.5,59.1,128.6,59.1z M58.7-0.9l9.7,51.6c0.5,2.6,2.8,4.5,5.5,4.5l54.8,0c0,0,0,0,0,0c2.3,0,4.4-1.4,5.2-3.6
				l18.8-50.1c0.2-0.6,0.2-1.2-0.2-1.7c-0.3-0.5-0.9-0.8-1.5-0.8L58.7-0.9L58.7-0.9z"/>
		</g>
		<g>
			<path class="st0" d="M56.3-0.9c-0.9,0-1.7-0.6-1.9-1.5L52-12.7c-0.6-2.5-2.8-4.3-5.4-4.3h-9.1c-1.1,0-2-0.9-2-2s0.9-2,2-2h9.1
				c4.5,0,8.3,3,9.3,7.4l2.4,10.2c0.3,1.1-0.4,2.2-1.5,2.4C56.6-1,56.5-0.9,56.3-0.9z"/>
		</g>
		<g>
			<path class="st0" d="M92,12H59.2c-1.1,0-2-0.9-2-2s0.9-2,2-2H92c1.1,0,2,0.9,2,2S93.1,12,92,12z"/>
		</g>
	</g>
</g>
<g id="email">
</g>
<g id="message">
</g>
<g id="delivery">
</g>
<g id="store">
</g>
<g id="label">
</g>
<g id="phone">
</g>
<g id="imac">
</g>
<g id="laptop">
</g>
<g id="heart_like">
</g>
<g id="game">
</g>
<g id="wallet">
</g>
<g id="camera">
</g>
<g id="battery">
</g>
<g id="shoes">
</g>
<g id="t-shirt">
</g>
<g id="pencil">
</g>
<g id="people">
</g>
<g id="statistics">
</g>
<g id="blog">
</g>
<g id="rock">
</g>
<g id="like">
</g>
<g id="dislike">
</g>
<g id="speaker">
</g>
<g id="pc">
</g>
<g id="glasses">
</g>
<g id="headphones">
</g>
<g id="player">
</g>
<g id="book">
</g>
<g id="transfer">
</g>
<g id="mouse">
</g>
<g id="package">
</g>
<g id="exellent">
</g>
<g id="card">
</g>
<g id="induction">
</g>
<g id="revers_camera">
</g>
<g id="flesh_drive">
</g>
<g id="time">
</g>
<g id="sale">
</g>
<g id="tablet">
</g>
<g id="search">
</g>
</svg>
